SplineFontDB: 3.0
FontName: Betamatic
FullName: Betamatic
FamilyName: Betamatic
Weight: Book
Copyright: vernon adams 2011-12
Version: 001.001
ItalicAngle: 0
UnderlinePosition: -102
UnderlineWidth: 102
Ascent: 1638
Descent: 410
sfntRevision: 0x00010000
LayerCount: 2
Layer: 0 0 "Back"  1
Layer: 1 0 "Fore"  0
XUID: [1021 14 500265001 8164902]
FSType: 0
OS2Version: 3
OS2_WeightWidthSlopeOnly: 0
OS2_UseTypoMetrics: 1
CreationTime: 1333030389
ModificationTime: 1335455363
PfmFamily: 81
TTFWeight: 400
TTFWidth: 5
LineGap: 0
VLineGap: 0
Panose: 0 0 0 0 0 0 0 0 0 0
OS2TypoAscent: 410
OS2TypoAOffset: 1
OS2TypoDescent: 357
OS2TypoDOffset: 1
OS2TypoLinegap: 0
OS2WinAscent: -172
OS2WinAOffset: 1
OS2WinDescent: -507
OS2WinDOffset: 1
HheadAscent: -172
HheadAOffset: 1
HheadDescent: 507
HheadDOffset: 1
OS2SubXSize: 1331
OS2SubYSize: 1228
OS2SubXOff: 0
OS2SubYOff: 153
OS2SupXSize: 1331
OS2SupYSize: 1228
OS2SupXOff: 0
OS2SupYOff: 716
OS2StrikeYSize: 102
OS2StrikeYPos: 813
OS2Vendor: 'newt'
OS2CodePages: 20000093.00000000
OS2UnicodeRanges: 00000007.00000000.00000000.00000000
MarkAttachClasses: 1
DEI: 91125
LangName: 1033 "" "" "" "vernon adams : Betamatic : 2011-12" "" "Version 1.000" "" "vernon adams" "" "" "" "" "" "" "http://scripts.sil.org/OFL" "" "Betamatic" 
Encoding: UnicodeBmp
Compacted: 1
UnicodeInterp: none
NameList: Adobe Glyph List
DisplaySize: -48
AntiAlias: 1
FitToEm: 1
WidthSeparation: 307
WinInfo: 170 17 10
BeginPrivate: 9
BlueValues 27 [-56 0 1378 1378 1595 1595]
OtherBlues 11 [-434 -434]
BlueScale 8 0.012692
BlueShift 2 12
StdHW 4 [96]
StdVW 5 [118]
StemSnapH 16 [96 104 111 386]
StemSnapV 16 [97 118 141 195]
ForceBold 4 true
EndPrivate
BeginChars: 65539 415

StartChar: .notdef
Encoding: 65536 -1 0
Width: 1332
Flags: W
HStem: 0 102<266 1066> 990 102<266 1066>
VStem: 133 133<102 990> 1066 133<102 990>
LayerCount: 2
Fore
SplineSet
266 102 m 1
 1066 102 l 1
 1066 990 l 1
 266 990 l 1
 266 102 l 1
133 0 m 1
 133 1092 l 1
 1199 1092 l 1
 1199 0 l 1
 133 0 l 1
EndSplineSet
EndChar

StartChar: exclam
Encoding: 33 33 2
Width: 458
Flags: W
HStem: -42.6299 106.63<172 296>
VStem: 160 178<1310.93 1553> 172 124<-42.6299 64>
LayerCount: 2
Fore
SplineSet
202.526 310.512 m 1xc0
 160 1553 l 1
 338 1553 l 1
 264.416 310.512 l 1
 202.526 310.512 l 1xc0
296 -42.6299 m 1xa0
 172 -42.6299 l 1
 172 64 l 1
 296 64 l 1
 296 -42.6299 l 1xa0
EndSplineSet
EndChar

StartChar: quotedbl
Encoding: 34 34 3
Width: 647
Flags: W
HStem: 1185 390
VStem: 165 67.3516<1193 1365.23> 386 123<1458.48 1575> 433 64.6758<1203 1309.52>
LayerCount: 2
Fore
SplineSet
144 1575 m 1xc0
 197 1578 l 1
 262.806 1567.88 l 1
 232.352 1185 l 1
 165 1193 l 1
 144 1575 l 1xc0
386 1575 m 1xe0
 465 1578 l 1
 509 1575 l 1xe0
 497.676 1203 l 1
 433 1193 l 1xd0
 386 1575 l 1xe0
EndSplineSet
EndChar

StartChar: numbersign
Encoding: 35 35 4
Width: 1196
Flags: W
HStem: -44 21G<175 333.048> 581 105<87 268 404 768> 584 125.875<935.585 1077> 952 106<258 325 474 829 977 1123>
VStem: 175 156<-44 112> 782 153.585<709.875 767.136>
DStem2: 268 576 395 581 0.152378 0.988322<-498.018 0 129.439 376.341 507.761 928.418> 629 -47 962 959 0.196305 0.980543<810.067 1018.82 1149.85 1270.57>
LayerCount: 2
Fore
SplineSet
404 686 m 1xdc
 782 686 l 1
 829 952 l 1
 446 952 l 1
 404 686 l 1xdc
132 1047 m 1
 349 1047 l 1
 412 1493.19 l 1
 472 1567 l 1
 551 1520 l 1
 474 1058 l 1
 839 1058 l 1
 1010 1566 l 1
 1072 1528 l 1
 977 1056 l 1
 1123 1056 l 1
 1123 1023.67 1123 991.333 1123 959 c 1
 962 959 l 1
 935.585 709.875 l 1
 1077 709.875 l 1
 1077 584 l 1
 909 584 l 1xbc
 719 -92 l 1
 629 -47 l 1
 768 581 l 1
 395 581 l 1
 331 -44 l 1
 175 -44 l 1
 268 576 l 1
 87 576 l 1
 87 611.667 87 647.333 87 683 c 1
 284 683 l 1
 325 948 l 1
 258 948 l 1
 132 1004 l 1
 132 1047 l 1
EndSplineSet
EndChar

StartChar: dollar
Encoding: 36 36 5
Width: 754
Flags: W
HStem: -17 21G<386 426> 162 79<223.254 350.109>
VStem: 91 104<1147.78 1408.59> 230 87<1523.59 1638.92> 282 48<1087.33 1297.85> 351 82<269 659.975> 355 99<-16.552 162> 562 127<384 537.497>
LayerCount: 2
Fore
SplineSet
166 323 m 1xeb
 164 322 l 1
 226 322 213 241 294 241 c 0
 313 241 332 245 351 246 c 1
 350 359 313 808 313 808 c 1
 209 978 91 1085 91 1284 c 0
 91 1354 122 1488 238 1516 c 1
 235 1532 230 1557 230 1582 c 0
 230 1611 237 1639 269 1639 c 0
 319 1639 317 1619 317 1575 c 0xf5
 317 1551 320 1527 328 1527 c 0
 397 1527 579 1450 579 1397 c 0
 579 1362 564 1349 532 1349 c 0
 446 1349 352 1425 325 1437 c 1
 325 1388 330 1340 330 1291 c 0
 330 1196 346 1102 359 1008 c 1
 377 1012 689 539 689 419 c 0
 689 278 564 203 446 178 c 1
 447 154 454 108 454 63 c 0
 454 22 445 -17 407 -17 c 0
 365 -17 355 18 355 44 c 2
 355 162 l 1
 218 162 112 181 112 280 c 0
 112 303 137 323 166 323 c 1xeb
560 386 m 1
 562 384 l 1
 562 517 443 652 402 734 c 1
 410 579 429 424 433 269 c 1
 498 299 560 342 560 386 c 1
282 1084 m 1xe9
 282 1085 l 1
 263 1193 257 1307 251 1419 c 1
 199 1382 195 1330 195 1287 c 0
 195 1218 231 1149 282 1084 c 1xe9
EndSplineSet
EndChar

StartChar: percent
Encoding: 37 37 6
Width: 1636
Flags: W
HStem: 3 113<1106.75 1323.4> 701 100<289.635 441.906> 733 106<1089.81 1322.67> 1450 104<294.038 427.611>
VStem: 99 133<872.267 1363.62> 498 122<864.074 1366.41> 889 129<233.702 647.198> 1416 130<210.082 642.527>
DStem2: 410 66 518 11 0.36497 0.931019<0 1574.64>
LayerCount: 2
Fore
SplineSet
354 701 m 0xdf
 101 701 99 1026 99 1164 c 0
 99 1256 142 1554 319 1554 c 0
 585 1554 616 1301 616 1148 c 0
 616 1111 620 1064 620 1014 c 0
 620 869 590 701 354 701 c 0xdf
1159 3 m 0
 933 3 889 271 889 371 c 2
 889 410 l 2
 889 561 900 839 1200 839 c 0xbf
 1534 839 1546 604 1546 430 c 2
 1546 379 l 2
 1546 230 1499 3 1159 3 c 0
1097 1488 m 1
 518 11 l 1
 410 66 l 1
 973 1537 l 1
 1097 1488 l 1
332 1450 m 0
 282 1450 232 1211 232 1166 c 0
 232 1103 241 801 353 801 c 0xdf
 493 801 498 1018 498 1093 c 0
 498 1180 498 1450 332 1450 c 0
1018 389 m 2
 1018 366 l 2
 1018 329 1088 116 1168 116 c 0
 1407 116 1416 303 1416 386 c 2
 1416 434 l 2
 1416 547 1400 733 1187 733 c 1xbf
 1187 734 l 1
 1025 734 1018 482 1018 389 c 2
EndSplineSet
EndChar

StartChar: ampersand
Encoding: 38 38 7
Width: 1626
Flags: W
HStem: 198 84<429.926 955.099> 199 93<1250.26 1499> 791 84<1102.91 1212.02> 1630 98<591.074 746.586>
VStem: 111 125<436.698 748.466> 389 197<1265.5 1617.07> 420 205<1086.13 1169.49> 760 182<1451.52 1614.95> 1213 117<557.451 652.998 655.156 788>
LayerCount: 2
Fore
SplineSet
942 1496 m 0xbd80
 942 1481 942 1462 953 1451 c 1
 870 1366 625 1164 625 1085 c 0
 625 962 908 505 1077 417 c 1
 1182 531 1213 656 1213 779 c 2
 1213 788 l 1
 1165 788 1121 803 1102 823 c 1
 1102 875 l 1
 1217 875 1405 884 1471 901 c 1
 1507 895 1546 880 1546 847 c 0
 1546 797 1446 791 1399 791 c 2
 1333 791 l 1
 1333 745 1330 699 1327 653 c 1
 1329 653 1330 650 1330 644 c 0
 1330 601 1268 426 1223 355 c 1
 1267 320 1327 292 1392 292 c 0
 1428 292 1463 298 1499 298 c 1
 1549 267 l 1
 1549 206 1477 199 1414 199 c 0x7b80
 1317 199 1232 233 1120 276 c 1
 968 227 821 198 634 198 c 0
 284 198 111 382 111 534 c 0
 111 780 206 913 420 1125 c 1xbb80
 418 1219 389 1312 389 1406 c 2
 389 1576 l 2
 389 1632 427 1728 579 1728 c 0
 725 1728 955 1682 955 1600 c 0
 955 1565 942 1530 942 1496 c 0xbd80
586 1471 m 1x3d80
 587 1471 l 1
 587 1409 591 1348 591 1286 c 2
 591 1263 l 1
 657 1328 760 1461 760 1531 c 0
 760 1566 753 1628 654 1630 c 1
 622 1617 604 1598 586 1580 c 1
 586 1471 l 1x3d80
466 967 m 1
 309 849 236 708 236 569 c 0
 236 442 353 282 674 282 c 0xb980
 760 282 929 307 990 337 c 1
 708 522 550 727 466 967 c 1
EndSplineSet
EndChar

StartChar: quoteright
Encoding: 8217 8217 8
Width: 581
Flags: W
HStem: 1193 385<276.281 310.709>
VStem: 198 253<1411.18 1552.55>
LayerCount: 2
Fore
SplineSet
126 1193 m 1
 126 1264 l 1
 172 1298 261 1338 274 1389 c 1
 231 1413 198 1449 198 1491 c 0
 198 1543 266 1578 329 1578 c 0
 399 1578 429 1536 451 1491 c 1
 451 1485 l 2
 451 1481 446 1476 446 1471 c 0
 446 1379 329 1193 205 1193 c 2
 126 1193 l 1
EndSplineSet
EndChar

StartChar: parenleft
Encoding: 40 40 9
Width: 612
Flags: W
VStem: 112 133<516.481 1117.52>
LayerCount: 2
Fore
SplineSet
458 1651 m 1
 454 1421 246 1156 245 880 c 0
 245 454 451 13 559 -318 c 1
 548 -340 518 -361 484 -361 c 0
 234 -361 112 701 112 881 c 0
 112 1001 215 1651 399 1651 c 2
 458 1651 l 1
EndSplineSet
EndChar

StartChar: parenright
Encoding: 41 41 10
Width: 634
Flags: W
VStem: 400 133<514.251 815>
LayerCount: 2
Fore
SplineSet
174 -71 m 0
 308 158 400 563 400 815 c 0
 400 1087 186 1407 186 1610 c 2
 186 1621 l 1
 234 1621 l 2
 449 1621 494 942 532 817 c 1
 533 815 l 1
 533 651 353 -303 132 -303 c 0
 97 -303 62 -284 62 -255 c 0
 62 -217 150 -112 174 -71 c 0
EndSplineSet
EndChar

StartChar: asterisk
Encoding: 42 42 11
Width: 1417
Flags: HW
HStem: 1096 102<87.4675 499 833 1328.11>
LayerCount: 2
Fore
SplineSet
147 1198 m 1
 499 1198 l 1
 286 1501 l 1
 359 1547 l 1
 649 1258 l 1
 972 1567 l 1
 1062 1512 l 1
 833 1194 l 1
 1196 1194 l 1
 1241 1137 l 1
 1241 1085 l 1
 818 1085 l 1
 1089 752 l 1
 989 691 l 1
 681 1011 l 1
 399 697 l 1
 335 697 l 1
 275.169 738.007 l 1
 529 1096 l 1
 168 1096 l 1
 147 1150 l 5
 147 1198 l 1
EndSplineSet
EndChar

StartChar: plus
Encoding: 43 43 12
Width: 971
Flags: W
HStem: 599 109<178 396 544 782>
VStem: 396 148<475.165 591 708 915>
LayerCount: 2
Fore
SplineSet
396 599 m 1
 151 599 l 1
 178 708 l 1
 396 708 l 1
 396 915 l 1
 466 968 l 1
 544 968 l 1
 544 701 l 1
 782 701 l 1
 782 591 l 1
 544 591 l 1
 569 389 l 1
 482 333 l 1
 396 385 l 1
 396 599 l 1
EndSplineSet
EndChar

StartChar: comma
Encoding: 44 44 13
Width: 563
Flags: W
HStem: -202 386<266.281 300.921>
VStem: 188 253<17.3784 158.551>
LayerCount: 2
Fore
SplineSet
116 -202 m 1
 116 -130 l 1
 160 -96 251 -54 264 -4 c 1
 221 20 188 55 188 97 c 0
 188 149 256 184 319 184 c 0
 389 184 419 143 441 98 c 1
 441 91 l 2
 441 87 437 82 437 77 c 0
 437 -15 319 -202 195 -202 c 2
 116 -202 l 1
EndSplineSet
EndChar

StartChar: hyphen
Encoding: 45 45 14
Width: 856
Flags: W
HStem: 671 89<153 242> 709 89<543 632>
VStem: 153 479<709 760>
DStem2: 153 760 153 671 0.996868 0.0790835<0 473.467>
LayerCount: 2
Fore
SplineSet
632 709 m 1x60
 153 671 l 1
 153 760 l 1xa0
 632 798 l 1
 632 709 l 1x60
EndSplineSet
EndChar

StartChar: period
Encoding: 46 46 15
Width: 492
Flags: HW
HStem: -32 152<157.354 330.334>
VStem: 146 195<-19.6762 104.691>
LayerCount: 2
Fore
SplineSet
148 37 m 4
 148 78 195 116 248 116 c 4
 299 116 343 77 343 39 c 4
 343 -8 296 -36 238 -36 c 4
 188 -36 148 0 148 37 c 4
EndSplineSet
EndChar

StartChar: slash
Encoding: 47 47 16
Width: 744
Flags: W
HStem: -31 21G<96.3415 156.688>
VStem: 40 623
DStem2: 40 10 150 -31 0.317155 0.948374<0 1603.58>
LayerCount: 2
Fore
SplineSet
40 10 m 1
 542 1533 l 1
 663 1503 l 1
 150 -31 l 1
 40 10 l 1
EndSplineSet
EndChar

StartChar: zero
Encoding: 48 48 17
Width: 960
Flags: W
HStem: 7 93<457.216 630.228> 1458 105<282.684 493.781>
VStem: 137 131<637.891 1332.56> 137 113<883.766 1423.05> 739 122<279.926 984.615>
LayerCount: 2
Fore
SplineSet
388 1563 m 0xe8
 859 1563 861 805 861 521 c 0
 861 373 851 7 518 7 c 0
 160 7 137 648 137 804 c 2
 137 1233 l 2
 137 1413 154 1563 388 1563 c 0xe8
739 568 m 1
 739 767 679 1458 388 1458 c 0
 313 1458 250 1410 250 1338 c 0xd8
 250 1222 268 1106 268 990 c 0
 268 923 306 857 306 790 c 0
 306 685 322 100 553 100 c 0
 706 100 739 497 739 568 c 1
EndSplineSet
EndChar

StartChar: one
Encoding: 49 49 18
Width: 789
Flags: W
HStem: -18 109<230 383 511.775 611.64> 1479 92<82 290.517>
VStem: 82 529.64
DStem2: 399.337 1537.58 290.517 1478.57 0.0665035 -0.997786<51.6425 1442.29>
LayerCount: 2
Fore
SplineSet
230 91 m 1
 281 91 332 91 383 91 c 1
 290.517 1478.57 l 1
 82 1479 l 1
 82 1571 l 1
 292 1571 l 1
 399.337 1537.58 l 1
 453 1079 l 1
 511.775 96.0463 l 1
 611.64 96.0463 l 1
 611.64 -18 l 1
 230 -18 l 1
 230 91 l 1
EndSplineSet
EndChar

StartChar: two
Encoding: 50 50 19
Width: 761
Flags: W
HStem: 4 103<361.827 611>
VStem: 195 127.316<1390 1480.93> 525 128<987.142 1447.17>
LayerCount: 2
Fore
SplineSet
525 1236 m 0
 525 1305 520 1492 398 1500 c 1
 348.531 1479.67 325.199 1447.45 322.316 1363 c 1
 260 1363 l 1
 195 1390 l 1
 195 1465 247 1586 367 1586 c 1
 367 1587 l 1
 651 1587 653 1357 653 1201 c 0
 653 774 384 408 246 86 c 1
 611 107 l 1
 611 72.6667 611 38.3333 611 4 c 1
 126 4 l 1
 78 47 l 1
 78 47 525 864 525 1236 c 0
EndSplineSet
EndChar

StartChar: three
Encoding: 51 51 20
Width: 787
Flags: W
HStem: -27.9761 83.2819<215.613 467.49> 1485.17 69.4175<117.625 343.306>
VStem: 407.935 118.661<1013.93 1355.59> 525.197 93.4111<115.211 578.883>
LayerCount: 2
Fore
SplineSet
351.9 55.3058 m 0xd0
 482.978 55.3058 525.197 154.649 525.197 286.343 c 0xd0
 525.197 471.793 441.477 721.394 404.27 848.079 c 1
 309 848.079 l 1
 309 889 l 1
 357.694 970.469 407.935 1129.14 407.935 1262.31 c 0
 407.935 1384.47 365.664 1485.17 241.156 1485.17 c 0
 200.388 1485.17 150.804 1474.38 91 1450 c 1
 91 1506 l 1
 147.128 1539.81 198.488 1554.59 244.69 1554.59 c 0
 424.882 1554.59 526.597 1329.76 526.597 1132.16 c 0xe0
 526.597 1054.45 510.869 980.959 478 927 c 1
 534.075 784.675 618.608 517.062 618.608 301.26 c 0
 618.608 117.951 557.614 -27.9761 366.374 -27.9761 c 0
 319.436 -27.9761 264.653 -19.1856 201 0 c 1
 221.911 79.4721 l 1
 272.68 62.8902 315.682 55.3058 351.9 55.3058 c 0xd0
EndSplineSet
EndChar

StartChar: four
Encoding: 52 52 21
Width: 796
Flags: W
HStem: -38 21G<543.389 575.696> 491 85.3361<254.082 451.46> 507 89<588 650>
VStem: 429 112.169<963.741 1161> 480 143.846<63.2085 226.578> 480 108<320.101 491>
DStem2: 106.604 513.76 254.082 576.336 0.0854807 0.99634<74.9533 907.967>
LayerCount: 2
Fore
SplineSet
451.46 576.018 m 5xc4
 429 1161 l 5
 493 1207 l 5
 541.169 1170.53 l 5xd0
 581 596 l 5
 658 596 l 5
 737 557 l 5
 650 507 l 5
 588 507 l 5xa4
 623.846 39.6785 l 5
 559 -38 l 5
 480 63.2085 l 5xa8
 480 491 l 5
 230 491 l 5
 106.604 513.76 l 5
 165 1124 l 5
 165 1503 l 5
 216 1543 l 5
 332.542 1490.84 l 5
 254.082 576.336 l 5
 451.46 576.018 l 5xc4
EndSplineSet
EndChar

StartChar: five
Encoding: 53 53 22
Width: 760
Flags: W
HStem: -36 103.751<123 448.842> 914 88<286 429.597> 1477 97<234 473>
VStem: 541 128<162.046 716.347>
DStem2: 234 1477 90 1540 0.118322 -0.992975<0 454.701>
LayerCount: 2
Fore
SplineSet
669 434 m 0
 669 106.479 572.558 -36 123 -36 c 1
 123 77 l 1
 179.399 71.5615 230.841 67.7507 276.855 67.7507 c 0
 445.285 67.7507 541 118.81 541 328 c 0
 541 415 511 914 377 914 c 2
 325 914 l 1
 325 907 l 1
 238 907 l 1
 153.219 1009.46 l 1
 90 1540 l 1
 136 1574 l 1
 473 1574 l 1
 494 1477 l 1
 234 1477 l 1
 286 1002 l 1
 641 971 669 687 669 434 c 0
EndSplineSet
EndChar

StartChar: six
Encoding: 54 54 23
Width: 856
Flags: W
HStem: -14 86<426.525 617.443> 1495 91<413.231 510>
VStem: 126 131<355.537 857.453 949 1219.39> 645 123<93.0785 534.192>
LayerCount: 2
Fore
SplineSet
257 769 m 0
 257 635 270 72 532 72 c 0
 642 72 645 176 645 211 c 0
 645 319 601 859 352 881 c 1
 264 852 257 813 257 769 c 0
497 -14 m 1
 497 -15 l 1
 149 -15 126 418 126 709 c 0
 126 778 127 837 127 884 c 0
 127 1040 129 1586 510 1586 c 1
 510 1495 l 1
 309.207 1495 270.161 1066.81 259 949 c 1
 283 951 305 952 328 952 c 0
 755 952 768 396 768 236 c 0
 768 114 754 -14 497 -14 c 1
EndSplineSet
EndChar

StartChar: seven
Encoding: 55 55 24
Width: 612
Flags: W
HStem: -10.0625 21G<125.009 245.094> 1499 91<114 436>
VStem: 99 472
DStem2: 99 24 240.789 -10.0625 0.210433 0.977608<0 1512.89>
LayerCount: 2
Fore
SplineSet
515.102 1590 m 5
 571 1524 l 5
 240.789 -10.0625 l 1
 162 -10.0625 l 1
 99 24 l 1
 436 1499 l 5
 114 1499 l 1
 114 1590 l 1
 515.102 1590 l 5
EndSplineSet
EndChar

StartChar: eight
Encoding: 56 56 25
Width: 835
Flags: W
HStem: -82 88<350.338 589.911> 1518 89<300 397.814>
VStem: 98 130<1201.47 1491.98> 158 123<82.9079 560.535> 452 188<1091.52 1467.73> 635 114<48.3622 384.582>
LayerCount: 2
Fore
SplineSet
300 1515 m 1xe8
 259 1487 228 1449 228 1413 c 0
 228 1308 294 1072 362 969 c 1
 417 1080 452 1196 452 1312 c 0
 452 1342 419 1518 345 1518 c 1
 300 1515 l 1xe8
281 190 m 2xd4
 281 188 l 2
 281 148 345 6 424 6 c 0
 589 6 635 74 635 140 c 0
 635 359 517 574 389 783 c 1
 306 628 281 354 281 190 c 2xd4
158 198 m 1
 157 198 l 1
 157 430 222 660 281 863 c 1xd4
 281 863 98 1225 98 1421 c 0
 98 1510 149 1607 284 1607 c 2
 374 1607 l 1
 636 1530 640 1466 640 1313 c 0xe8
 640 1160 565 1010 492 862 c 1
 665 651 757 349 757 119 c 0
 757 103 755 87 749 72 c 1
 749 60 l 1
 701 -24 622 -82 420 -82 c 0
 199 -82 158 98 158 198 c 1
EndSplineSet
EndChar

StartChar: nine
Encoding: 57 57 26
Width: 700
Flags: W
HStem: -34 21G<417.526 479.5> 1527 87<278.822 430.316>
VStem: 88 130<1102.44 1456.64> 433 104<247.002 680.566> 442 127<1013.41 1517.06> 442 127<1014.47 1517.44>
LayerCount: 2
Fore
SplineSet
218 1247 m 0xe8
 218 1228 223 1178 239 1162 c 1
 256 1047 318 1057 430 1009 c 1
 440 1148 442 1288 442 1427 c 0
 442 1480 430 1527 347 1527 c 0
 241 1527 218 1306 218 1247 c 0xe8
537 237 m 0xf0
 537 188 520 139 520 90 c 0
 520 78 521 64 521 49 c 0
 521 9 512 -34 447 -34 c 1
 391 4 l 1
 430 94 433 502 433 686 c 0xf0
 433 772 429 848 427 931 c 1
 234 965 88 1087 88 1243 c 0
 88 1370 123 1614 345 1614 c 0
 529 1614 569 1547 569 1420 c 0xe8
 569 1026 537 631 537 237 c 0xf0
EndSplineSet
EndChar

StartChar: colon
Encoding: 58 58 27
Width: 472
Flags: W
HStem: 177 152<144.354 316.546> 951 152<171.608 343.334>
VStem: 133 194<189.56 313.691> 160 194<963.324 1088.55>
LayerCount: 2
Fore
SplineSet
160 1024 m 0xd0
 160 1064 206 1103 259 1103 c 0
 310 1103 354 1064 354 1026 c 0
 354 979 307 951 249 951 c 0
 199 951 160 987 160 1024 c 0xd0
133 250 m 0xe0
 133 291 180 329 233 329 c 0
 284 329 327 290 327 252 c 0
 327 206 281 177 223 177 c 0
 173 177 133 213 133 250 c 0xe0
EndSplineSet
EndChar

StartChar: semicolon
Encoding: 59 59 28
Width: 543
Flags: W
HStem: -11 21G<161.5 239> 952 152<238.825 410.334>
VStem: 181 249<194.386 335.982> 227 194<964.324 1089.55>
LayerCount: 2
Fore
SplineSet
172 -11 m 0xe0
 151 -11 117 10 117 27 c 2
 117 51 l 1
 161 83 246 122 257 171 c 1
 214 195 181 230 181 272 c 0
 181 324 250 359 312 359 c 0
 381 359 430 309 430 258 c 0
 430 168 306 -11 172 -11 c 0xe0
227 1025 m 0xd0
 227 1065 273 1104 326 1104 c 0
 377 1104 421 1065 421 1027 c 0
 421 980 374 952 316 952 c 0
 267 952 227 988 227 1025 c 0xd0
EndSplineSet
EndChar

StartChar: less
Encoding: 60 60 29
Width: 726
Flags: HW
HStem: -22 21G<512 627.5>
VStem: 91 556
LayerCount: 2
Fore
SplineSet
91 698 m 5
 510.573 1446.24 l 5
 579 1411 l 5
 243 702 l 5
 663.326 43.4198 l 5
 611 -22 l 5
 91 698 l 5
EndSplineSet
EndChar

StartChar: equal
Encoding: 61 61 30
Width: 1030
Flags: W
HStem: 579 101<155 874> 764 108<165 828>
LayerCount: 2
Fore
SplineSet
155 579 m 1
 155 612.667 155 646.333 155 680 c 1
 874 680 l 5
 874 646.333 874 612.667 874 579 c 5
 155 579 l 1
902 872 m 1
 899 818 l 1
 828 764 l 1
 158 764 l 1
 155 826 l 1
 165 872 l 1
 902 872 l 1
EndSplineSet
EndChar

StartChar: greater
Encoding: 62 62 31
Width: 758
Flags: HW
HStem: -23 21G<129 161.5>
VStem: 519 153<698 824.872>
LayerCount: 2
Fore
SplineSet
241.703 1445.25 m 1
 672 698 l 1
 208 -19 l 1
 153 -19 l 1
 83 49 l 1
 519 702 l 1
 104 1391 l 5
 241.703 1445.25 l 1
EndSplineSet
EndChar

StartChar: question
Encoding: 63 63 32
Width: 639
Flags: W
HStem: -36 152<73.3542 246.334>
VStem: 62 195<-23.6762 100.691> 108 127.316<1390 1480.93> 438 128<928.884 1447.17>
LayerCount: 2
Fore
SplineSet
62 37 m 0xd0
 62 78 109 116 162 116 c 0
 213 116 257 77 257 39 c 0
 257 -8 210 -36 152 -36 c 0
 102 -36 62 0 62 37 c 0xd0
438 1236 m 0
 438 1305 433 1492 311 1500 c 1
 261.531 1479.67 238.199 1447.45 235.316 1363 c 1
 173 1363 l 1
 108 1390 l 1xb0
 108 1465 160 1586 280 1586 c 1
 280 1587 l 1
 564 1587 566 1357 566 1201 c 0
 566 774 477 758 339 436 c 1
 219 274 l 1
 171 317 l 1
 171 317 438 864 438 1236 c 0
EndSplineSet
EndChar

StartChar: at
Encoding: 64 64 33
Width: 1799
Flags: W
HStem: -120 89<562.633 1161.86> 306 104<751.983 1023.16> 1246 105<736.646 978.288> 1612 107<546.273 1087.13>
VStem: 126 142<472.916 1325.33> 486 159<539.463 1145.63> 1166 174<556 923.152> 1551 148<569.503 1091.11>
LayerCount: 2
Fore
SplineSet
1551 776 m 1
 1550 776 l 1
 1550 1089 1431 1612 810 1612 c 0
 305 1612 268 1272 268 999 c 2
 268 847 l 2
 268 615 287 -31 737 -31 c 0
 1270 -31 1214 57 1527 169 c 1
 1527 179 l 1
 1600 140 l 1
 1534 -27 1082 -120 753 -120 c 0
 127 -120 126 683 126 956 c 0
 126 1262 135 1719 829 1719 c 0
 1596 1719 1699 1146 1699 767 c 0
 1699 645 1695 406 1422 406 c 0
 1348 406 1301 426 1269 449 c 1
 1209 368 1049 306 849 306 c 0
 489 306 486 661 486 851 c 0
 486 1047 491 1351 858 1351 c 0
 1331 1351 1303 818 1340 565 c 1
 1340 556 l 1
 1439 510 l 1
 1540 536 1551 723 1551 776 c 1
857 1246 m 2
 654 1245 645 1013 645 888 c 0
 645 876 645 865 645 855 c 0
 645 678 651 410 881 410 c 0
 1013 410 1166 550 1166 605 c 2
 1166 759 l 2
 1166 875 1109 1245 858 1246 c 2
 857 1246 l 2
EndSplineSet
EndChar

StartChar: A
Encoding: 65 65 34
Width: 928
Flags: W
HStem: -1 21G<636 677.5> 373 92<346 413.638>
DStem2: 81 64 223 23 0.272402 0.962184<0 364.87 458.022 1321.08>
LayerCount: 2
Fore
SplineSet
634 448 m 1
 572 1298 l 1
 574 1316 l 1
 346 465 l 1
 583 442 l 1
 634 448 l 1
81 64 m 1
 500 1544 l 1
 683 1526 l 1
 836 21 l 1
 774 9 719 1 636 -1 c 1
 636 321 l 1
 329 373 l 1
 223 23 l 1
 81 64 l 1
EndSplineSet
EndChar

StartChar: B
Encoding: 66 66 35
Width: 974
Flags: HW
HStem: -17 21G<234.98 523.5> 786 102<309 448.562> 1421 116<292.143 536.386>
VStem: 154 137<901.969 1419.48> 172 154<110 599.147> 673 147<1097.63 1318.25> 699 176<245.681 597.217>
LayerCount: 2
Fore
SplineSet
172 538 m 0xea
 172 815 154 1093 154 1370 c 2
 154 1512 l 1
 244 1537 l 1
 660 1537 820 1392 820 1201 c 0xf4
 820 1083 731 938 536 879 c 1
 770.993 790.439 898.812 600.672 898.812 418.48 c 0
 898.812 195.043 706.569 -17 284 -17 c 1
 159 34 l 1
 159 202 172 370 172 538 c 0xea
459 786 m 2
 305 786 l 1
 323 573 326 323 326 110 c 1
 593 129 699 252 699 369 c 0
 699 606 565 786 459 786 c 2
352 1421 m 0
 291 1421 291 1376 291 1357 c 0
 291 1201 307 1044 309 888 c 1
 505 908 673 1097 673 1236 c 0xf4
 673 1315 532 1421 352 1421 c 0
EndSplineSet
EndChar

StartChar: C
Encoding: 67 67 36
Width: 898
Flags: W
HStem: -33 126<427.476 756.575> 1420 146<436.615 743>
VStem: 114 139<355.125 1247.53>
LayerCount: 2
Fore
SplineSet
524 -33 m 1
 524 -32 l 1
 150 -32 114 426 114 793 c 0
 114 883 117 967 117 1038 c 0
 117 1385 167 1566 551 1566 c 0
 626 1566 746 1566 746 1565 c 2
 743 1420 l 1
 269 1420 253 1253 253 893 c 0
 253 866 253 839 253 810 c 0
 253 553 262 93 559 93 c 0
 666 93 769 127 840 192 c 1
 885 75 l 1
 789 1 694 -33 524 -33 c 1
EndSplineSet
EndChar

StartChar: D
Encoding: 68 68 37
Width: 1164
Flags: W
HStem: -4 21G<234.5 565> 1429 123<265.039 582.24>
VStem: 95.5243 167.476<1019.68 1429> 139.479 161.521<114 527.72> 914 162<636.405 1130.97>
LayerCount: 2
Fore
SplineSet
262 -4 m 0xe8
 207 -4 139.479 15.2324 139.479 66.2324 c 1xd8
 95.5243 1481.17 l 1
 95.5243 1548.17 219 1552 302 1552 c 2
 346 1552 l 1
 346 1553 l 1
 1062 1553 1059 1111 1076 869 c 1
 1076 553 868 -4 262 -4 c 0xe8
914 854 m 0
 914 1142 830 1429 263 1429 c 1
 263 1427 l 2xe8
 263 1054 323 623 301 250 c 1
 301 114 l 1
 751 243 914 634 914 854 c 0
EndSplineSet
EndChar

StartChar: E
Encoding: 69 69 38
Width: 665
Flags: W
HStem: -12 117<308 563> 752 118<310.887 489> 752 100<308.605 485.769> 1423 128<313.137 505> 1425 108<281.423 500.276>
VStem: 155 153<105 751.991 855.656 1418.7> 155 134<852 1082.34 1091.3 1425>
LayerCount: 2
Fore
SplineSet
308 105 m 1xc4
 406 107 511 111 609 111 c 1
 597 57 l 1
 597 50 l 1
 563 -12 l 1
 290 -12 l 2
 228 -12 155 -10 155 55 c 2
 155 1533 l 1xca
 255 1533 405 1551 505 1551 c 1
 507 1484 l 1
 506 1423 l 1x92
 439 1423 377 1425 310 1425 c 0
 301 1425 290 1425 281 1424 c 1
 281 1311 302 1199 302 1086 c 0
 302 1008 290 930 289 852 c 1xaa
 356 858 420 870 489 870 c 1
 492 813 l 1
 497 750 l 1
 461 750 408 752 355 752 c 0
 328 752 321 749 308 737 c 1
 308 105 l 1xc4
EndSplineSet
EndChar

StartChar: F
Encoding: 70 70 39
Width: 595
Flags: W
HStem: -10 21G<191.842 255> 1442 112<256.582 464>
VStem: 108 147<985.927 1531.5>
DStem2: 341 81 179 129 0.0643823 -0.997925<-550.996 75.1019>
LayerCount: 2
Fore
SplineSet
108 1520 m 0
 108 1543 321 1554 355 1554 c 0
 396 1554 433 1553 464 1549 c 1
 469 1484 l 1
 474 1440 l 1
 449 1440 391 1442 329 1442 c 0
 293 1442 255 1438 255 1419 c 0
 255 1235 293 1053 296 869 c 1
 362 876 426 891 494 891 c 1
 517 828 l 1
 528 784 l 1
 462 762 347 763 296 761 c 1
 296 591 317 423 329 254 c 2
 341 81 l 1
 345 6 l 1
 255 -2 l 1
 194 -10 l 1
 179 129 l 1
 179 292 108 1446 108 1520 c 0
EndSplineSet
EndChar

StartChar: G
Encoding: 71 71 40
Width: 1356
Flags: W
HStem: -54 145<513.985 971.409> -35 21G<1120 1255> 363 148<707 1046> 1445 146<535.764 904.64>
VStem: 112 146<346.193 1095.98> 1120 135<-35 42>
LayerCount: 2
Fore
SplineSet
783 -54 m 0xbc
 125 -54 113 464 113 711 c 0
 113 753 112 805 112 862 c 0
 112 1158 146 1591 763 1591 c 1
 1010 1566 l 1
 1010 1424 l 1
 905 1424 818 1445 717 1445 c 0
 268 1445 258 905 258 744 c 0
 258 456 228 91 776 91 c 0xbc
 914 91 1016 124 1095 177 c 1
 1046 371 l 1
 954 369 827 363 707 363 c 1
 707 511 l 1
 841 507 1081.27 500.857 1185.27 500.857 c 1
 1255 -35 l 1
 1120 -35 l 1x7c
 1120 42 l 1
 1099 42 l 1
 996 5 901 -54 783 -54 c 0xbc
EndSplineSet
EndChar

StartChar: H
Encoding: 72 72 41
Width: 990
Flags: W
HStem: 701 123<299.875 677>
VStem: 98 150<1036.14 1541.09> 654 183<1010.47 1526> 748 147<43 523.109>
LayerCount: 2
Fore
SplineSet
191 5 m 1xd0
 140 221 98 1320 98 1510 c 2
 98 1555 l 1
 157 1557 l 1
 257 1544 l 1
 251 1482 248 1421 248 1360 c 0
 248 1220 268 1079 268 939 c 1
 273 809 l 1
 413 811 551 822 677 824 c 1
 676 1058 654 1292 654 1526 c 1
 834 1547 l 1
 837 1393 l 1xe0
 837 943 895 491 895 43 c 1
 748 37 l 1
 748 92 719 221 719 356 c 1
 702 701 l 1
 565 701 419 701 294 685 c 1
 293 476 311 268 311 59 c 1
 191 5 l 1xd0
EndSplineSet
EndChar

StartChar: I
Encoding: 73 73 42
Width: 642
Flags: W
HStem: 19 94<87 249 401 563> 1447 110<415 491>
VStem: 217 116<1180 1428> 262 139<115 429.524>
LayerCount: 2
Fore
SplineSet
568 19 m 1xd0
 83 19 l 1
 86 64 l 1
 87 113 l 1
 249 112 l 1
 262 158 l 1xd0
 212 1105 l 1
 217 1314 l 1
 211 1428 l 1
 98 1419 l 1
 86 1518 l 1
 415 1553 l 1
 493 1557 l 1
 491 1447 l 1
 438 1445 386 1443 333 1441 c 1xe0
 401 203 l 1
 401 115 l 1
 565 116 l 1
 563 82 l 1
 567 62 l 1
 568 19 l 1xd0
EndSplineSet
EndChar

StartChar: J
Encoding: 74 74 43
Width: 624
Flags: W
VStem: 320 143<81.0023 788.174>
LayerCount: 2
Fore
SplineSet
427 1444 m 1
 427 1439 427 1434 427 1429 c 0
 427 1323 414 1218 414 1112 c 0
 414 846 463 581 463 315 c 0
 463 64 403 -86 204 -194 c 1
 152 -194 108 -175 108 -131 c 2
 108 -130 l 2
 108 -20 318 -5 318 241 c 0
 318 334 320 429 320 525 c 0
 320 836 312 1155 249 1445 c 1
 212 1439 173 1429 134 1429 c 0
 97 1429 66 1453 66 1481 c 0
 66 1553 321 1553 385 1553 c 0
 439 1553 538 1548 538 1497 c 0
 538 1453 473 1444 427 1444 c 1
EndSplineSet
EndChar

StartChar: K
Encoding: 75 75 44
Width: 1020
Flags: W
HStem: -28 28G<160 299 813 883.596> 1575 20G<730.5 815.889>
VStem: 160 139<0 643.048 953 1560> 165 117<193.344 800.572>
LayerCount: 2
Fore
SplineSet
169 1049 m 1xd0
 169 1275 167 1406 167 1560 c 1
 304 1560 l 1
 304 1374 l 2
 304 1234 295 1093 291 953 c 1
 353 1044 674 1495 787 1595 c 1
 865 1541 l 1
 865 1498 545 1131 506 1020 c 1
 506 994 l 1
 567 902 935 95 965 40 c 1
 860 -49 l 1
 766 79 479 761 392 879 c 1
 304 775 282 768 282 649 c 0xd0
 282 522 299 396 299 269 c 2
 299 0 l 1
 252.667 -0 206.333 0 160 0 c 1xe0
 160 224 165 436 165 660 c 0
 165 754 169 905 169 1049 c 1xd0
EndSplineSet
EndChar

StartChar: L
Encoding: 76 76 45
Width: 638
Flags: W
HStem: -4 106<323 574>
VStem: 124 146<1104.05 1563.43>
LayerCount: 2
Fore
SplineSet
323 102 m 1
 574 102 l 1
 574 66.6667 574 31.3333 574 -4 c 1
 180 -4 l 1
 180 41 177 87 177 132 c 0
 177 615 124 1096 124 1579 c 1
 172 1573 221 1567 270 1562 c 1
 270 1299 297 1036 297 775 c 0
 297 753 296 732 292 710 c 1
 292 701 l 2
 292 523 323 345 323 167 c 2
 323 102 l 1
EndSplineSet
EndChar

StartChar: M
Encoding: 77 77 46
Width: 1474
Flags: W
HStem: -11 10.566G<257.872 321.136 1144.41 1317>
VStem: 100.321 161.624<1084.47 1339.03> 149.149 172.87<32.4639 303.226> 1146 171<-11 160>
DStem2: 346 1554 261.945 1339.03 0.320249 -0.947333<176.73 1192.82> 728 424 795 248 0.27286 0.962054<0 770.359> 1194 1529 1055 1132 0.0796166 -0.996826<384.673 1531.29>
LayerCount: 2
Fore
SplineSet
617 222 m 1xd0
 261.945 1339.03 l 1xd0
 322.019 -21.434 l 1
 149.149 32.4639 l 1xb0
 100.321 1521.72 l 1
 346 1554 l 1
 728 424 l 1
 1041.15 1528.11 l 1
 1194 1529 l 1
 1317 -11 l 1
 1146 -11 l 1
 1055 1132 l 1
 795 248 l 1
 617 222 l 1xd0
EndSplineSet
EndChar

StartChar: N
Encoding: 78 78 47
Width: 1310
Flags: W
HStem: 1 21G<143 266 884.5 1003.61>
VStem: 131 135<1 286.327 -nan 1297> 1012 133<225 1545>
LayerCount: 2
Fore
SplineSet
266 1 m 1
 143 1 l 1
 143 39 l 1
 144 45 145 52 145 60 c 0
 145 88 135 129 135 177 c 0
 135 371 131 688 131 812 c 2
 131 1073 l 2
 131 1198 149 1324 149 1449 c 2
 149 1462 l 2
 149 1519 153 1554 249 1554 c 2
 342 1554 l 1
 416 1374 733 733 957 298 c 1
 998 225 l 1
 998 463 1012 701 1012 939 c 2
 1012 1545 l 1
 1159 1576 l 1
 1159 1522 1155 1482 1155 1444 c 0
 1155 1193 1145 939 1145 687 c 2
 1145 61 l 1
 958 -21 l 1
 811 189 588.282 670.052 351.282 1112.05 c 1
 266 1297 l 1
 266 1 l 1
EndSplineSet
EndChar

StartChar: O
Encoding: 79 79 48
Width: 1211
Flags: W
HStem: -56 121<558.577 776.176> 1468 117<416.957 675.655>
VStem: 130 160<552.137 1259.31> 922 179<341.867 1037.11>
LayerCount: 2
Fore
SplineSet
676 -56 m 0
 166 -56 133 610 133 800 c 0
 133 878 130 959 130 1039 c 0
 130 1322 167 1585 500 1585 c 0
 909 1585 1101 1122 1101 688 c 0
 1101 305 954 -56 676 -56 c 0
517 1468 m 0
 293 1468 290 979 290 862 c 0
 290 727 370 65 682 65 c 0
 901 65 922 563 922 653 c 0
 922 795 912 1468 517 1468 c 0
EndSplineSet
EndChar

StartChar: P
Encoding: 80 80 49
Width: 726
Flags: W
VStem: 132 148<309.841 730.416 811 1297> 132 118<1003.38 1459> 149 152<4 485.145> 477 136<984.952 1291.66>
LayerCount: 2
Fore
SplineSet
477 1141 m 0x50
 477 1260 402 1376 250 1459 c 1
 251 1243 272 1027 273 811 c 1
 408 908 477 1026 477 1141 c 0x50
195 1566 m 2
 470 1566 613 1365 613 1175 c 0
 613 983 506 805 280 712 c 1x90
 281 476 301 240 301 4 c 1
 250.333 4 199.667 4 149 4 c 1x30
 149 225 131 501 132 789 c 1
 132 1566 l 1
 195 1566 l 2
EndSplineSet
EndChar

StartChar: Q
Encoding: 81 81 50
Width: 1222
Flags: W
HStem: 1464 111<430.286 726.537>
VStem: 127 140<418.722 1149.25> 930 149<298.169 1240.67>
LayerCount: 2
Fore
SplineSet
529 1575 m 1
 1046 1575 1080 1178 1080 861 c 0
 1080 787 1079 717 1079 658 c 0
 1079 604.333 1079 550.667 1079 497 c 0
 1079 320 1066 139 834 29 c 1
 894 -88 961 -195 1012 -320 c 1
 912.02 -357.796 l 1
 687 -11 l 1
 499 19 l 1
 151 148 127 528 127 743 c 0
 127 854 130 796 130 907 c 0
 130 1195 206 1575 529 1575 c 1
930 894 m 2
 930 1124 926 1464 521 1464 c 0
 295 1464 267 865 267 743 c 0
 267 309 446 115 629 115 c 0
 785 115 930 246 930 527 c 2
 930 894 l 2
EndSplineSet
EndChar

StartChar: R
Encoding: 82 82 51
Width: 904
Flags: W
HStem: -19.3432 11.3432G<143 312 745.348 816.029>
VStem: 143 169<-8 566.634> 161 151<773.139 859 1051.52 1463> 161 120<952.454 1456.48> 578 193<1111.4 1355.47>
LayerCount: 2
Fore
SplineSet
281 1045 m 0x98
 281 1014 281 982 285 951 c 1
 470 1014 499 1012 578 1207 c 1
 578 1358 512 1449 299 1463 c 1
 298 1324 281 1184 281 1045 c 0x98
143 60 m 2xc8
 143 460 161 861 161 1261 c 2xa8
 161 1513 l 2x98
 161 1541 168 1557 231 1557 c 0
 613 1557 771 1370 771 1217 c 0
 771 1097 723 949 475 876 c 1
 576 663 817.81 237.234 922.81 14.2337 c 1
 754.264 -40.3432 l 1
 718 41 l 1
 664 139 452 597 312 859 c 1xa8
 312 -8 l 1
 255.667 -8 199.333 -8 143 -8 c 1
 143 60 l 2xc8
EndSplineSet
EndChar

StartChar: S
Encoding: 83 83 52
Width: 765
Flags: W
HStem: -45 93<145.856 397.472> 1446 99<303.276 569.566>
VStem: 123 152<1075.77 1421.35> 503 158<177.548 549.565>
LayerCount: 2
Fore
SplineSet
275 1290 m 0
 275 792 661 779 661 342 c 0
 661 179 546 -45 297 -45 c 0
 245 -45 154 -35 90 24 c 1
 120 109 l 1
 182 63 246 48 297 48 c 0
 444 48 503 268 503 355 c 0
 503 690 123 940 123 1275 c 0
 123 1413 203 1545 383 1545 c 0
 452 1545 536 1526 636 1480 c 1
 636 1376 l 1
 609 1383 482 1446 395 1446 c 0
 329 1446 275 1411 275 1290 c 0
EndSplineSet
EndChar

StartChar: T
Encoding: 84 84 53
Width: 711
Flags: W
HStem: -15 21G<328 456> 1413 120<65 321.708> 1438 112<466.934 636>
VStem: 328 137<-15 1424>
LayerCount: 2
Fore
SplineSet
454 454 m 0xb0
 454 297 456 142 456 -15 c 1
 413.333 -15 370.667 -15 328 -15 c 1
 328 1424 l 1
 244 1422 149 1413 65 1413 c 1
 65 1453 65 1493 65 1533 c 1xd0
 234 1547 561 1550 636 1550 c 1
 636 1512.67 636 1475.33 636 1438 c 1
 577 1438 522 1442 465 1442 c 1
 465 1189 l 2
 465 1102 451 1013 451 925 c 0
 451 765 454 615 454 454 c 0xb0
EndSplineSet
EndChar

StartChar: U
Encoding: 85 85 54
Width: 1296
Flags: W
HStem: -37 132<607.836 959.013>
VStem: 100 167<1056.85 1547> 953.311 175.699<1231.48 1538.95> 1012 149.81<145.828 586.864>
LayerCount: 2
Fore
SplineSet
803 -37 m 1xd0
 155 -37 111 605 111 1112 c 0
 111 1230 100 1341 100 1435 c 2
 100 1547 l 1
 155.667 1547 211.333 1547 267 1547 c 1
 267 995 196 95 801 95 c 0
 1009 95 1017 220 1012 279 c 1xd0
 953.311 1539.34 l 1
 1051 1539 l 1
 1129.01 1538.95 l 1xe0
 1161.81 288.152 l 1
 1161.81 137.152 1130 -37 803 -37 c 1xd0
EndSplineSet
EndChar

StartChar: V
Encoding: 86 86 55
Width: 872
Flags: W
HStem: -34 21G<436.091 570.5>
VStem: 424 133<-12 139.003> 628 154<1414 1568>
DStem2: 466 339 557 -34 0.133854 0.991001<0 1239.62>
LayerCount: 2
Fore
SplineSet
250 1563 m 1
 339 1144 439 534 466 339 c 1
 524 746 587 1260 628 1568 c 1
 679.333 1568 730.667 1568 782 1568 c 1
 764 1403 584 134 557 -34 c 1
 424 -12 l 1
 307 359 179 1161 72 1523 c 1
 250 1563 l 1
EndSplineSet
EndChar

StartChar: W
Encoding: 87 87 56
Width: 1452
Flags: HW
VStem: 323 174<28 353.726> 499 179<1150.97 1386>
LayerCount: 2
Fore
SplineSet
499 1287 m 2
 499 1386 l 1
 678 1386 l 1
 678 1215 842 752 960 352 c 1
 1040 760 1185 1465 1196 1577 c 1
 1255 1587 1315 1597 1374 1607 c 1
 1326 1281 1075 409 1040 33 c 5
 897 33 l 1
 806 379 632 939 614 1053 c 1
 555 713 497 372 497 28 c 1
 323 28 l 1
 323 161 115 1407 73 1491 c 1
 215 1540 l 1
 240 1454 382 643 402 504 c 1
 429 695 499 1116 499 1287 c 2
EndSplineSet
EndChar

StartChar: X
Encoding: 88 88 57
Width: 780
Flags: W
HStem: -13 21G<128.696 192>
VStem: 88 72<33 54.9539> 110 104<1410.34 1457> 602 79<1464.91 1506>
DStem2: 397 998 332 750 0.279961 -0.960011<-480.685 0 446.733 972.286>
LayerCount: 2
Fore
SplineSet
462 796 m 0xb0
 462 774 562 454 572 411 c 1
 622 236 l 1
 630 173 666 93 672 55 c 1
 589 24 l 1
 530 24 l 1
 512 126 440 366 387 538 c 1
 356 437 224 101 160 -13 c 1
 88 33 l 1
 88 34 l 1xd0
 155 255 334 750 332 750 c 1
 281 928 109 1456 110 1457 c 2
 139 1479 l 1
 214 1521 l 1
 270 1376 374 1101 397 998 c 1
 423 1083 528 1386 602 1551 c 1
 681 1506 l 1
 681 1397 462 932 462 796 c 0xb0
EndSplineSet
EndChar

StartChar: Y
Encoding: 89 89 58
Width: 686
Flags: W
HStem: -18 21G<317 458>
VStem: 317 141<-18 661.553>
DStem2: 159 1546 24 1513 0.326978 -0.945032<0 649.681> 354 926 458 761.396 0.228076 0.973643<0 633.564>
LayerCount: 2
Fore
SplineSet
159 1546 m 1
 354 926 l 1
 515 1539 l 1
 635 1517 l 1
 458 761.396 l 1
 458 -18 l 1
 411 -18 364 -18 317 -18 c 1
 318.598 661.553 l 1
 24 1513 l 1
 159 1546 l 1
EndSplineSet
EndChar

StartChar: Z
Encoding: 90 90 59
Width: 652
Flags: W
HStem: -11 96<250 489> 1451 98<254 406>
VStem: 85 460
DStem2: 85 31 250 85 0.220493 0.975389<89.0523 1455.83>
LayerCount: 2
Fore
SplineSet
545 1505 m 1
 250 85 l 1
 541 85 l 5
 534.063 28.7967 l 1
 489 -11 l 1
 160 -11 l 1
 85 31 l 1
 406 1451 l 1
 254 1451 l 1
 110 1506 l 1
 110 1549 l 1
 472 1549 l 1
 545 1505 l 1
EndSplineSet
EndChar

StartChar: bracketleft
Encoding: 91 91 60
Width: 685
Flags: W
HStem: -112 84<397.072 428.144> 1465 131<357.561 425.439> 1465 76<512.561 560>
VStem: 119.68 440.32
LayerCount: 2
Fore
SplineSet
357.561 1465 m 1xd0
 242.164 22.7848 l 1
 458 -28 l 1
 422 -112 l 1
 119.68 -76.2762 l 1
 226 1480 l 1
 257 1596 l 1
 378 1596 l 1xd0
 560 1541 l 1
 560 1465 l 1xb0
 357.561 1465 l 1xd0
EndSplineSet
EndChar

StartChar: backslash
Encoding: 92 92 61
Width: 737
Flags: W
HStem: -30 21G<542.954 584.738>
VStem: 85 573
DStem2: 197 1535 85 1505 0.28935 -0.957223<0 1573.05>
LayerCount: 2
Fore
SplineSet
197 1535 m 1
 658 31 l 1
 549 -30 l 1
 85 1505 l 1
 197 1535 l 1
EndSplineSet
EndChar

StartChar: bracketright
Encoding: 93 93 62
Width: 665
Flags: W
HStem: -122 94<169 263> 1454 106<103 269.327>
VStem: 103 442.723
DStem2: 169 -28 169 -122 0.992373 0.123275<0 260.553>
LayerCount: 2
Fore
SplineSet
169 -28 m 1
 427.316 6.12814 l 1
 346.062 1474.95 l 1
 103 1454 l 1
 103 1560 l 1
 422 1560 l 1
 470.251 1517.92 l 1
 545.723 -75.2026 l 1
 169 -122 l 1
 169 -28 l 1
EndSplineSet
EndChar

StartChar: asciicircum
Encoding: 94 94 63
Width: 474
Flags: W
HStem: 1515 141<160.539 322.312>
VStem: 152 178<1523.32 1643.59>
LayerCount: 2
Fore
SplineSet
152 1575 m 0
 152 1612 178 1656 234 1656 c 0
 286 1656 330 1623 330 1583 c 0
 330 1546 296 1515 247 1515 c 0
 199 1515 152 1534 152 1575 c 0
EndSplineSet
EndChar

StartChar: underscore
Encoding: 95 95 64
Width: 1556
Flags: W
HStem: -137 114<132.585 643> -116 116<880.402 1420.35>
LayerCount: 2
Fore
SplineSet
192 -137 m 0x80
 156 -137 126 -113 126 -85 c 0
 126 -34 270 -23 409 -23 c 0x80
 554 -23 714 -20 773 -20 c 0
 1011 -20 1191 0 1336 0 c 0
 1378 0 1423 -24 1423 -58 c 0
 1423 -109 1388 -116 1295 -116 c 0x40
 1262 -116 1223 -115 1175 -115 c 0
 824 -115 435 -137 192 -137 c 0x80
EndSplineSet
EndChar

StartChar: quoteleft
Encoding: 8216 8216 65
Width: 573
Flags: W
HStem: 1192 385<268.732 302.283>
VStem: 127 254<1217.45 1358.28>
LayerCount: 2
Fore
SplineSet
452 1577 m 1
 452 1506 l 1
 404 1476 318 1429 305 1381 c 1
 347 1357 381 1320 381 1279 c 0
 381 1227 312 1192 250 1192 c 0
 179 1192 149 1234 127 1279 c 1
 127 1285 l 1
 126 1289 133 1294 133 1298 c 0
 133 1391 251 1577 374 1577 c 2
 452 1577 l 1
EndSplineSet
EndChar

StartChar: a
Encoding: 97 97 66
Width: 885
Flags: W
HStem: -10 12G<142.143 231.754 645.86 804>
DStem2: 80 25 333 408 0.253602 0.967309<434.64 1083.61> 598 1363 489 1038 0.147639 -0.989041<305.346 973.231 1076.47 1374.53>
LayerCount: 2
Fore
SplineSet
578 376 m 1
 489 1038 l 1
 333 408 l 1
 578 376 l 1
598 1363 m 1
 804 -17 l 1
 650 -19 l 1
 585 295 l 1
 328 295 l 1
 225 -10 l 1
 80 25 l 1
 430 1360 l 1
 509 1363 l 1
 598 1363 l 1
EndSplineSet
EndChar

StartChar: b
Encoding: 98 98 67
Width: 836
Flags: W
HStem: -19 21G<126 408>
VStem: 152 148<418.655 644 763 1288> 532 166<893.523 1162.77> 572 142<201.842 506.54>
LayerCount: 2
Fore
SplineSet
572 309 m 0xd0
 572 401 551 620 303 644 c 1
 271.894 85.2843 l 1
 480.894 108.284 572 218 572 309 c 0xd0
532 1012 m 0xe0
 532 1076 485 1278 300 1288 c 1
 300 763 l 1
 521 766 532 939 532 1012 c 0xe0
698 1029 m 0
 698 894 577 808 500 726 c 1
 616 641 714 476 714 361 c 0xd0
 714 168 607 -19 209 -19 c 1
 126 -1 l 5
 152 525 l 1
 152 1329 l 1
 237 1384 l 1
 520 1384 698 1296 698 1029 c 0
EndSplineSet
EndChar

StartChar: c
Encoding: 99 99 68
Width: 747
Flags: W
HStem: -17 121<356.248 641.712> 1263 101<508.738 643>
VStem: 108 176<428.187 1075.65> 108 159<221.524 919.082>
LayerCount: 2
Fore
SplineSet
108 615 m 2xe0
 108 662 l 2
 108 1003 119 1364 643 1364 c 1
 643 1330 643 1297 643 1263 c 1
 362 1182 284 1135 284 827 c 2
 284 817 l 2xe0
 284 685 267 554 267 422 c 0xd0
 267 289 298 104 473 104 c 0
 524 104 588 120 666 157 c 1
 697 52 l 1
 597 4 514 -17 444 -17 c 0
 165 -17 109 313 109 495 c 0
 109 527 108 569 108 615 c 2xe0
EndSplineSet
EndChar

StartChar: d
Encoding: 100 100 69
Width: 1031
Flags: W
HStem: -13 104<320 466.136> 1257 95<290 476.139>
VStem: 152 138<577.891 1257> 164 156<96.25 634.329> 767 137<366.401 930.938>
LayerCount: 2
Fore
SplineSet
215 1353 m 1xe8
 215 1352 l 1
 748 1352 904 1036 904 704 c 2
 904 592 l 2
 904 340 882 118 446 -13 c 1
 212 -13 l 2
 166 -13 164 189 164 255 c 0xd8
 164 470 152 685 152 900 c 2
 152 1326 l 2
 152 1341 189 1353 215 1353 c 1xe8
320 140 m 2
 320 91 l 1xd8
 401 91 l 1
 720 269 767 373 767 611 c 0
 767 783 754 1230 290 1257 c 1
 290 1044 l 2xe8
 290 742 320 442 320 140 c 2
EndSplineSet
EndChar

StartChar: e
Encoding: 101 101 70
Width: 681
Flags: W
HStem: -27 104<295 601> 713 109<299 514>
VStem: 145 150<77 448.167> 162 133<833.482 1236>
DStem2: 578 1311 578 1197 0.990371 -0.138439<-265.931 0>
LayerCount: 2
Fore
SplineSet
145 -27 m 1xe0
 145 314 162 679 162 1034 c 0
 162 1142 168 1249 168 1357 c 1
 168 1355 178 1352 260 1352 c 0
 314 1352 465 1339 578 1311 c 1
 578 1197 l 1
 299 1236 l 1
 299 822 l 1
 514 822 l 1
 514 786 514 749 514 713 c 1
 295 713 l 1xd0
 295 77 l 1
 601 77 l 1
 601 42 601 8 601 -27 c 1
 145 -27 l 1xe0
EndSplineSet
EndChar

StartChar: f
Encoding: 102 102 71
Width: 710
Flags: W
HStem: -38 21G<282 282> 652 101<303 482> 1223 140<330.935 630> 1243 120<327 626.388>
VStem: 118 164<4.66962 510.78>
LayerCount: 2
Fore
SplineSet
180 1294 m 2xd8
 180 1363 l 1xd8
 630 1363 l 1
 630 1316 630 1270 630 1223 c 1xe8
 554 1239 410 1243 327 1243 c 1
 327 1219 l 2
 327 1082 303 945 303 808 c 2
 303 753 l 1
 350 753 413 754 482 754 c 1
 482 716 482 678 482 640 c 1
 426 640 334 645 282 652 c 1
 282 -38 l 2
 282 -34 265 -30 192 -30 c 1
 118 13 l 1
 167 434 180 867 180 1294 c 2xd8
EndSplineSet
EndChar

StartChar: g
Encoding: 103 103 72
Width: 1088
Flags: W
HStem: -16 107<440.677 740.077> 519 104<506 817.638> 1252 102<431.052 842.037>
VStem: 101 159<328.779 1044.21> 819 130<182.779 517.903>
LayerCount: 2
Fore
SplineSet
101 622 m 2
 101 668 l 2
 101 935 111 1354 596 1354 c 0
 665 1354 756 1349 846 1312 c 1
 846 1219 l 1
 767 1236 682 1252 623 1252 c 0
 269 1252 260 962 260 629 c 0
 260 433 274 91 626 91 c 0
 807 91 819 310 819 413 c 0
 819 446 819 478 819 511 c 1
 790 519 758 519 725 519 c 0
 703 519 534 518 506 518 c 1
 506 553 506 588 506 623 c 1
 630 623 869 629 949 620 c 1
 949 411 l 2
 949 112 864 -16 578 -16 c 0
 173 -16 101 411 101 622 c 2
EndSplineSet
EndChar

StartChar: h
Encoding: 104 104 73
Width: 987
Flags: W
HStem: 632 80<302.099 684>
VStem: 134 168<865.926 1323> 138 146<29 651 718.007 1201.02> 662 140<988.089 1370> 686 166<38 419.911>
LayerCount: 2
Fore
SplineSet
694 294 m 0x88
 694 396 686 498 686 548 c 2
 686 556 l 2
 686 576 685 595 685 615 c 0
 685 621 684 628 684 634 c 2
 684 636 l 1
 665 633 627 632 606 632 c 0
 501 632 406 649 297 651 c 1
 294 576 284 500 284 425 c 2
 284 416 l 2
 284 287 291 158 291 29 c 1
 132 5 l 2
 137 5 138 134 138 283 c 0xa8
 138 391 146 509 146 595 c 0
 146 647 147 680 147 712 c 0
 147 752 152 792 152 832 c 0
 152 1013 134 1193 134 1374 c 1
 209 1374 l 1
 302 1323 l 1xc0
 302 1123 284 922 284 722 c 1
 373 712 462 712 551 712 c 2
 695 712 l 1
 695 755 l 2
 695 961 662 1164 662 1370 c 1
 802 1370 l 1xb0
 852 38 l 1
 783 38 l 1
 700 0 l 2
 695 -1 694 148 694 294 c 0x88
EndSplineSet
EndChar

StartChar: i
Encoding: 105 105 74
Width: 723
Flags: W
HStem: 18 100<125 285.997 424 576> 1254 102<77 273.874 417 594>
VStem: 268 145<173.641 1065.91 1074.68 1248> 282 146<130.753 573.203 587.125 1246.31>
LayerCount: 2
Fore
SplineSet
369 22 m 0xe0
 276 22 201 18 123 18 c 1
 125 55 l 1
 125 118 l 1
 281 118 l 1
 282 127 286 136 286 145 c 0
 286 290 268 435 268 580 c 0xe0
 268 732 282 884 282 1036 c 0
 282 1109 278 1182 269 1254 c 1
 218 1254 l 1
 174 1255 126 1254 77 1254 c 1
 74 1309 l 1
 75 1356 l 1
 130 1356 186 1356 227 1356 c 0
 309 1356 609 1356 609 1346 c 1
 594 1248 l 1
 417 1248 l 1
 425 1192 428 1129 428 1072 c 0xd0
 428 942 413 811 413 681 c 0
 413 536 433 391 433 246 c 2
 433 185 l 2
 433 166 428 146 424 130 c 1
 577 130 l 1
 576 79 l 1
 595 24 l 1
 553 24 511 23 469 23 c 0
 448 23 417 22 369 22 c 0xe0
EndSplineSet
EndChar

StartChar: j
Encoding: 106 106 75
Width: 745
Flags: W
HStem: -254 111<132.963 180.1> 1226 97<467 671> 1245 91<114 323>
VStem: 323 144<753.261 1230> 344 145<-18.0319 859.477>
LayerCount: 2
Fore
SplineSet
138 -254 m 1xc8
 99 -143 l 1
 328 -32 348 -9 344 187 c 2xc8
 323 1226 l 1xd0
 323 1235 l 1
 114 1245 l 1
 108 1288 l 1
 111 1336 l 1xb0
 671 1323 l 1
 672 1291 672 1258 673 1226 c 1
 467 1230 l 1xd0
 476 949 489 664 489 382 c 0
 489 353 487 323 487 293 c 0
 487 233 489 172 489 114 c 0
 489 -64 450 -217 138 -254 c 1xc8
EndSplineSet
EndChar

StartChar: k
Encoding: 107 107 76
Width: 913
Flags: W
HStem: -33 29G<225 284.36 738.5 838>
VStem: 137 147<-16 465.69> 188 148<1038.73 1368>
LayerCount: 2
Fore
SplineSet
484 760 m 1xa0
 504 718 l 1
 904 39 l 1
 808 -25 l 1
 669 132 404 546 376 672 c 1
 294 523 l 1
 284 -33 l 1
 225 -31 l 1
 137 -16 l 1xc0
 157 656 l 1
 188 1368 l 1
 336 1368 l 1
 314 835 l 1
 314 728 l 1
 366 808 656 1276 722 1380 c 1
 825 1289 l 1
 825 1284 521 822 484 760 c 1xa0
EndSplineSet
EndChar

StartChar: l
Encoding: 108 108 77
Width: 685
Flags: W
HStem: -34 114<429.048 587>
VStem: 135 142<78 542.517> 161 126<448.483 1350>
LayerCount: 2
Fore
SplineSet
287 569 m 2xa0
 287 561 287 552 287 544 c 2xa0
 277 78 l 1
 366 77 l 1
 587 80 l 1
 610 20 l 1
 619 -34 l 1
 301 -10 l 1
 150 -29 l 1
 135 38 l 1xc0
 161 953 l 1
 161 968 l 1
 153 1350 l 1
 246 1354 l 1
 293 1353 l 1
 295 1147 l 1
 287 569 l 2xa0
EndSplineSet
EndChar

StartChar: m
Encoding: 109 109 78
Width: 1557
Flags: W
HStem: -28 21G<134.5 280 1261 1413>
VStem: 129 151<-32 578.604> 181 133<867.67 1135> 1261 152<-28 950.987> 1265 126<833.131 1195>
LayerCount: 2
Fore
SplineSet
344 1351 m 1x80
 344 1353 l 1
 344 1351 l 1x80
1413 459 m 2x90
 1413 -28 l 1
 1261 -28 l 1x90
 1261 78 1268 177 1268 283 c 0
 1268 402 1259 521 1259 639 c 0
 1259 794 1265 1025 1265 1195 c 1
 1208 1031 991 308 868 94 c 1
 778 94 l 1
 698 140 l 1
 594 388 382 1009 314 1135 c 1xa8
 298 810 280 415 280 89 c 2
 280 -32 l 1
 138 -32 l 2
 131 -32 129 82 129 255 c 0xc0
 129 588 181 1095 181 1340 c 1
 235 1344 290 1347 344 1351 c 1
 344 1350 l 1
 449 1268 730 432 776 242 c 1
 823 377 1069 1141 1214 1347 c 1
 1391 1291 l 1xa8
 1391 1014 1413 729 1413 459 c 2x90
EndSplineSet
EndChar

StartChar: n
Encoding: 110 110 79
Width: 1307
Flags: W
HStem: -45 21G<247.077 304 860.741 1086.28>
VStem: 138 146<324.797 1199.09> 143 161<16 777.828> 154 130<834.954 1203> 1003 129<153 327.163> 1018 170.22<955.837 1283>
LayerCount: 2
Fore
SplineSet
284 807 m 2xc0
 284 693 304 439 304 277 c 2
 304 -45 l 1
 230 -19 l 1
 143 16 l 1xa0
 143 287 138 558 138 829 c 0xc0
 138 956 154 1084 154 1211 c 2
 154 1299 l 1
 331 1349 l 1
 516 1181 916 306 1003 153 c 1x98
 1016 510 1018 869 1018 1228 c 2
 1018 1283 l 1
 1188.22 1283 l 1x84
 1132 0 l 1
 934.741 -26.0342 l 1
 786.741 165.966 356 1087 284 1203 c 1x98
 284 807 l 2xc0
EndSplineSet
EndChar

StartChar: o
Encoding: 111 111 80
Width: 1122
Flags: W
HStem: -38 86<435.495 666.233> 1246 115<422.716 696.851>
VStem: 108 148<348.629 1045.71> 844 145<298.024 1030.84>
LayerCount: 2
Fore
SplineSet
256 718 m 0
 256 614 278 48 540 48 c 0
 810 48 837 455 837 565 c 0
 837 616 844 692 844 776 c 0
 844 1039 714 1246 609 1246 c 0
 295 1246 256 990 256 718 c 0
989 798 m 2
 989 551 l 2
 989 368 971 -38 559 -38 c 0
 148 -38 109 410 109 626 c 0
 109 672 108 715 108 751 c 2
 108 791 l 2
 108 1166 335 1361 559 1361 c 0
 776 1361 989 1178 989 798 c 2
EndSplineSet
EndChar

StartChar: p
Encoding: 112 112 81
Width: 713
Flags: W
HStem: -39 21G<149 283> 628 85<292 369.067> 1228 114<305 416.129>
VStem: 159 146<-31.9702 642.032 713.281 1228> 452 145<804.132 1193.4>
LayerCount: 2
Fore
SplineSet
305 1228 m 1
 305 1115 l 2
 305 987 290 859 290 731 c 2
 290 713 l 1
 445 729 452 969 452 1059 c 0
 452 1136 435 1228 305 1228 c 1
159 1080 m 2
 157 1340 l 1
 210 1342 l 1
 327 1342 l 2
 541 1342 597 1180 597 1044 c 0
 597 831 593 699 292 628 c 1
 292 409 l 2
 292 259 283 111 283 -39 c 1
 149 -39 l 1
 151 128 l 1
 151 303 145 477 145 652 c 0
 145 714 155 815 155 885 c 0
 155 944 160 1012 159 1080 c 2
EndSplineSet
EndChar

StartChar: q
Encoding: 113 113 82
Width: 1117
Flags: W
HStem: -94 100<409.062 578> 1288 81<389.554 625.556>
VStem: 107 134<282.284 1014.07> 866 122<389.938 1021.9>
DStem2: 693 -79 578 -94 0.182908 -0.98313<-8.39985 363.049>
LayerCount: 2
Fore
SplineSet
107 512 m 0
 107 595 111 678 111 754 c 0
 111 903 121 1369 484 1369 c 1
 943 1265 988 1092 988 812 c 0
 988 635 936 0 693 -79 c 1
 759 -436 l 1
 650 -481 l 1
 578 -94 l 1
 352 -67 107 37 107 512 c 0
241 699 m 0
 241 590 241 7 520 6 c 1
 559 14 604 18 645 18 c 0
 735 18 866 386 866 726 c 0
 866 1017 771 1287 474 1288 c 0
 283 1288 241 785 241 699 c 0
EndSplineSet
EndChar

StartChar: r
Encoding: 114 114 83
Width: 731
Flags: W
HStem: -13.1295 9.1295G<170.573 278 635.542 687.679> 1289 76<257.005 413.93>
VStem: 122 135<934.929 1288.58> 170.573 107.427<-3.79675 389.274> 518.369 132.95<913.297 1198.38>
DStem2: 403 736 278 689 0.453265 -0.891376<0 721.992>
LayerCount: 2
Fore
SplineSet
210 1365 m 1xe8
 405.004 1359.31 678.573 1316.25 651.319 1089.01 c 1
 651.319 893.53 568.093 819.003 403 736 c 1
 753 104 l 1
 753 17 l 1
 645.712 -34.1295 l 1
 278 689 l 1
 278 -4 l 1
 214 -4 l 1
 170.573 -3.79675 l 1xd8
 122 1328 l 1
 210 1365 l 1xe8
257 1260 m 0xe8
 257 1102 266 945 268 787 c 1
 466.731 839.873 518.369 952.581 518.369 1065.28 c 1
 522.554 1212.74 409.856 1284.3 266 1289 c 1
 264 1280 257 1269 257 1260 c 0xe8
EndSplineSet
EndChar

StartChar: s
Encoding: 115 115 84
Width: 659
Flags: W
HStem: -28 99<98.5479 341.667> 1272 109<290.903 502.08>
VStem: 106 130<908.467 1216.1> 425 130<172.398 533.558>
LayerCount: 2
Fore
SplineSet
236 1075 m 0
 236 811 555 689 555 342 c 0
 555 191 479 -28 240 -28 c 0
 183 -28 143 -16 85 12 c 1
 105 86 l 1
 141 82 208 71 245 71 c 0
 390 71 425 286 425 367 c 0
 425 631 106 790 106 1086 c 0
 106 1194 170 1381 347 1381 c 0
 404 1381 481 1366 518 1337 c 1
 493 1241 l 1
 464 1255 408 1272 384 1272 c 0
 287 1272 236 1165 236 1075 c 0
EndSplineSet
EndChar

StartChar: t
Encoding: 116 116 85
Width: 724
Flags: W
HStem: 1237 104<462.718 635> 1255 86<182.254 295 455.003 632.19>
VStem: 295 160<755.946 1250.72> 343 151<7 484.943>
LayerCount: 2
Fore
SplineSet
343 260 m 1x90
 334 299 297 1154 295 1255 c 1x60
 241 1255 69 1255 69 1266 c 2
 74 1360 l 1
 515 1341 l 1
 640 1342 l 1
 641 1293 l 1
 635 1237 l 1
 575 1237 518 1247 460 1251 c 1
 459 1245 455 1237 455 1230 c 0xa0
 455 821 494 416 494 7 c 1
 433 6 l 1
 343 6 l 1
 343 58 338 138 338 190 c 0
 338 213 342 237 343 260 c 1x90
EndSplineSet
EndChar

StartChar: u
Encoding: 117 117 86
Width: 1024
Flags: W
HStem: -31 137<346.685 606.48>
VStem: 143 148<532.578 1355> 745 135<510.687 1360>
LayerCount: 2
Fore
SplineSet
457 106 m 0
 748 106 745 427 745 970 c 2
 745 1307 l 1
 744 1411 l 1
 816 1389 l 1
 879 1360 l 1
 879 1268 880 1174 880 1084 c 0
 880 1048 880 883 880 833 c 0
 880 479 857 -31 478 -31 c 0
 164 -31 131 257 131 473 c 0
 131 693 146 821 146 1013 c 0
 146 1114 145 1213 143 1306 c 1
 143 1355 l 1
 291 1372 l 1
 291 341 l 2
 291 206 324 106 457 106 c 0
EndSplineSet
EndChar

StartChar: v
Encoding: 118 118 87
Width: 961
Flags: W
HStem: 1358 20G<695.5 811>
VStem: 736 121<1167.48 1376.62>
DStem2: 208 1366 82 1319 0.234073 -0.972219<16.2011 493.53>
LayerCount: 2
Fore
SplineSet
207 1366 m 1
 208 1366 l 1
 208 1366 469 402 493 247 c 1
 593 629 655 1004 736 1378 c 1
 796 1378 l 1
 826 1375 857 1377 857 1351 c 0
 857 1167 590 70 571 16 c 1
 391 7 l 1
 330 234 200 916 82 1319 c 1
 207 1366 l 1
EndSplineSet
EndChar

StartChar: w
Encoding: 119 119 88
Width: 1267
Flags: W
HStem: -51 22.2374G<276.994 431.665 863 1003.72> 1357.82 20G<1007.92 1151.13>
VStem: 1007.92 145.329<1231.35 1376.68>
DStem2: 226 1329 78 1293 0.148628 -0.988893<13.6032 1054.15> 359 283 429 -51 0.132105 0.991236<0 790.927> 667 1210 576 1052 0.252458 -0.967608<129.908 930.3> 891 307 1001.59 -49.7626 0.105641 0.994404<0 1076.05>
LayerCount: 2
Fore
SplineSet
1001.59 -49.7626 m 1
 863 -48 l 1
 576 1052 l 1
 429 -51 l 1
 379.333 -51 329.667 -51 280 -51 c 1
 78 1293 l 1
 226 1329 l 1
 359 283 l 1
 486.096 1208.06 l 1
 667 1210 l 1
 747 911 815 610 891 307 c 1
 1007.92 1376.68 l 1
 1153.25 1377.82 l 1
 1001.59 -49.7626 l 1
EndSplineSet
EndChar

StartChar: x
Encoding: 120 120 89
Width: 698
Flags: W
HStem: -11 21G<211 255.385>
VStem: 91 508
DStem2: 130 40 278 93 0.234454 0.972127<0 431.985 1251.57 1337.38> 347 894 143 1169 0.288709 -0.957417<-452.878 0 142.319 876.985>
LayerCount: 2
Fore
SplineSet
444 1340 m 1
 599 1322 l 1
 529 1109 l 1
 488 1021 410 741 410 646 c 1
 599 54 l 1
 478 3 l 1
 343 433 l 1
 278 93 l 1
 250 -11 l 1
 211 -7 l 1
 130 40 l 1
 280 660 l 1
 143 1169 l 1
 126 1210 109 1251 91 1292 c 1
 210 1344 l 1
 252 1222 330 981 347 894 c 1
 375 1003 408 1164 422 1238 c 1
 444 1340 l 1
EndSplineSet
EndChar

StartChar: y
Encoding: 121 121 90
Width: 763
Flags: W
HStem: -23 21G<368.17 417>
VStem: 368 131<-11 689.712>
LayerCount: 2
Fore
SplineSet
373 564 m 1
 331 706 93 1225 92 1228 c 2
 52 1299 l 1
 182 1373 l 1
 267 1206 401 890 436 797 c 1
 466 887 531 1207 594 1362 c 1
 729 1339 l 1
 644 1018 516 750 509 436 c 2
 499 -11 l 1
 417 -18 l 1
 368 -23 l 1
 373 564 l 1
EndSplineSet
EndChar

StartChar: z
Encoding: 122 122 91
Width: 723
Flags: W
HStem: -4 111<242 477.496> 12 99<242 503> 1244 115<199 485>
VStem: 91 532
DStem2: 91 48 242 107 0.310082 0.95071<102.914 1270.63>
LayerCount: 2
Fore
SplineSet
623 1302 m 1xb0
 242 107 l 1
 287 107 l 1xb0
 503 111 l 1
 507 62 l 1
 514 12 l 1x70
 163 -4 l 1
 91 48 l 1
 485 1256 l 1
 195 1244 l 1
 199 1301 l 1
 199 1359 l 1
 561 1359 l 1
 623 1302 l 1xb0
EndSplineSet
EndChar

StartChar: braceleft
Encoding: 123 123 92
Width: 787
Flags: W
HStem: -48 87<414.658 660.473> 1407 87<422.555 669.569>
VStem: 263 127<59.9228 707.155 829.543 1224.19 1225.84 1376.92>
LayerCount: 2
Fore
SplineSet
526 -48 m 1
 526 -49 l 1
 311 -49 263 51 263 197 c 2
 263 620 l 1
 262 784 81 672 81 765 c 0
 81 865 262 753 262 915 c 0
 262 957 249 1053 249 1129 c 0
 249 1172 253 1208 266 1225 c 1
 262 1243 259 1261 259 1279 c 0
 259 1398 348 1494 526 1494 c 0
 570 1494 712 1481 712 1434 c 0
 712 1403 673 1388 637 1388 c 0
 592 1388 552 1407 506 1407 c 0
 379 1407 379 1221 379 1156 c 0
 379 1105 389 1023 389 946 c 0
 389 874 380 805 342 767 c 1
 384 727 390 671 390 621 c 2
 390 179 l 2
 390 116 402 39 506 39 c 0
 561 39 609 62 663 62 c 0
 679 62 686 25 686 16 c 0
 686 -36 575 -48 526 -48 c 1
EndSplineSet
EndChar

StartChar: bar
Encoding: 124 124 93
Width: 457
Flags: W
VStem: 155 147<1030.43 1576.1> 173 138<-72.9766 572.431>
LayerCount: 2
Fore
SplineSet
173 114 m 0x40
 173 580 155 1045 155 1510 c 0
 155 1556 185 1584 247 1584 c 0
 281 1584 302 1556 302 1533 c 0x80
 302 1148 311 763 311 379 c 2
 311 -29 l 2
 311 -57 276 -80 240 -80 c 0
 172 -80 173 82 173 114 c 0x40
EndSplineSet
EndChar

StartChar: braceright
Encoding: 125 125 94
Width: 782
Flags: W
HStem: -48 87<126.954 373.928> 1408 87<127.021 368.351>
VStem: 418 127<82.3594 220.11 221.724 671.959 782.323 1359.63>
LayerCount: 2
Fore
SplineSet
271 1495 m 0
 483 1495 534 1394 534 1249 c 2
 534 876 l 2
 534 712 703 821 703 731 c 0
 703 630 535 745 535 581 c 0
 535 538 545 421 545 330 c 0
 545 279 543 236 531 221 c 1
 535 202 536 184 536 166 c 0
 536 47 449 -48 271 -48 c 0
 227 -48 85 -35 85 12 c 0
 85 43 124 58 159 58 c 0
 205 58 245 39 290 39 c 0
 417 39 418 224 418 289 c 0
 418 346 405 443 405 534 c 0
 405 615 415 691 454 729 c 1
 413 770 406 825 406 875 c 0
 406 915 419 1021 419 1127 c 0
 419 1267 397 1408 290 1408 c 0
 236 1408 188 1385 133 1385 c 0
 118 1385 111 1422 111 1431 c 0
 111 1483 222 1495 271 1495 c 0
EndSplineSet
EndChar

StartChar: exclamdown
Encoding: 161 161 95
Width: 460
Flags: W
HStem: -52 21G<251 296.5> 1395 177<120.838 306.903>
VStem: 104 220<1414.73 1558.04> 165 178<-33.9648 502.04> 178 112<636.4 1234.36>
LayerCount: 2
Fore
SplineSet
168 1038 m 0xc8
 168 1052 166 1074 166 1099 c 0
 166 1165 173 1250 217 1250 c 0
 269 1250 290 1127 290 1074 c 0xc8
 290 714 343 357 343 -2 c 0
 343 -30 315 -52 278 -52 c 0
 224 -52 165 -17 165 27 c 0xd0
 165 251 178 475 178 699 c 0
 178 806 168 924 168 1038 c 0xc8
215 1395 m 0
 157 1395 104 1438 104 1481 c 2
 104 1487 l 2
 104 1532 133 1572 205 1572 c 0
 269 1572 324 1549 324 1494 c 0xe0
 324 1443 286 1395 215 1395 c 0
EndSplineSet
EndChar

StartChar: cent
Encoding: 162 162 96
Width: 929
Flags: W
HStem: -20 21G<533 564> 313 93<377.31 488.998>
VStem: 117 129<548.961 1025.45> 339 149<1255.78 1447.17> 495 97<67.1555 306.062> 506 104<-17.3409 199.844>
LayerCount: 2
Fore
SplineSet
488 1371 m 1xf8
 486 1371 l 1
 486 1184 674 1227 737 1140 c 1
 741 1135 l 1
 741 1114 715 1084 684 1084 c 0
 642 1084 610 1112 595 1140 c 1
 520 1140 l 1
 542 919 590 595 590 403 c 0
 590 399 592 395 593 391 c 1
 694 395 740 452 790 511 c 1
 844 511 867 492 867 451 c 0
 867 373 681 307 592 301 c 1
 592 222 l 2xf8
 592 157 610 93 610 28 c 0
 610 2 581 -20 547 -20 c 1
 519 9 506 17 506 65 c 0xf4
 506 111 495 156 495 202 c 0
 495 239 489 276 484 313 c 1
 121 402 117 560 117 777 c 0
 117 943 124 1156 359 1254 c 1
 352 1292 339 1330 339 1368 c 0
 339 1403 350 1456 430 1456 c 1
 486 1434 488 1423 488 1379 c 2
 488 1371 l 1xf8
380 1150 m 1
 274 1068 246 889 246 790 c 0
 246 695 256 427 489 406 c 1
 477 547 421 908 380 1150 c 1
EndSplineSet
EndChar

StartChar: sterling
Encoding: 163 163 97
Width: 998
Flags: W
HStem: 27 98<408.48 867.216> 883 93<325 560.783>
VStem: 145 128<980.036 1400.12> 338 126<259.697 552.2> 488 147<1394 1508.2>
LayerCount: 2
Fore
SplineSet
338 382 m 0
 338 565 142 785 142 918 c 0
 142 937 155 956 177 966 c 1
 173 1057 145 1147 145 1238 c 0
 145 1329 164 1632 333 1632 c 2
 418 1632 l 2
 522 1632 635 1474 635 1403 c 2
 635 1394 l 1
 593 1359 l 1
 523 1359 518 1380 488 1422 c 1
 488 1459 l 1
 477 1475 470 1492 464 1509 c 1
 448 1523 414 1536 388 1539 c 1
 388 1519 l 1
 351 1486 273 1318 273 1270 c 2
 273 1243 l 2
 273 1154 275 1062 298 976 c 1
 388 979 475 1002 565 1002 c 0
 600 1002 632 980 632 952 c 0
 632 873 393 891 325 883 c 1
 366 717 464 548 464 378 c 0
 464 305 431 238 403 169 c 1
 520 162 631 125 748 125 c 0
 789 125 831 130 869 144 c 1
 932 109 l 1
 932 41 867 27 795 27 c 0
 748 27 700 34 665 34 c 2
 579 34 l 1
 541 45 462 71 405 71 c 0
 357 71 211 21 165 2 c 1
 165 6 l 1
 133 8 90 23 90 53 c 0
 90 142 338 200 338 382 c 0
EndSplineSet
EndChar

StartChar: fraction
Encoding: 8260 8260 98
Width: 744
Flags: W
HStem: -31 21G<101.22 156.688>
VStem: 50 613
DStem2: 50 10 150 -31 0.331412 0.943486<0 1611.78>
LayerCount: 2
Fore
SplineSet
50 10 m 1
 592 1553 l 1
 663 1503 l 1
 150 -31 l 1
 50 10 l 1
EndSplineSet
EndChar

StartChar: yen
Encoding: 165 165 99
Width: 1428
Flags: W
HStem: -8 21G<729 792.5> 773 102<198.828 718 888 1344.03> 958 113<233.723 516.854 735 737 901 1344.44> 958 94<338.038 731.626>
VStem: 718 164<275.783 773> 735 153<887 957>
LayerCount: 2
Fore
SplineSet
735 1071 m 1xe4
 737 1071 l 1
 622 1153 64 1604 64 1737 c 0
 64 1762 93 1774 145 1774 c 0
 273 1774 721 1293 801 1207 c 1
 849 1302 1060 1832 1186 1832 c 0
 1225 1832 1261 1809 1261 1778 c 2
 1261 1768 l 1
 1153 1536 1010 1307 901 1059 c 1
 961 1059 1107 1066 1186 1066 c 0
 1273 1066 1351 1054 1351 1005 c 0
 1351 963 1257 957 1204 957 c 2
 888 957 l 1
 888 887 l 1xe4
 958 887 1094 889 1202 889 c 0
 1273 889 1345 876 1345 820 c 0
 1345 797 1307 780 1272 780 c 0
 1126 780 1135 780 882 776 c 1
 880 564 841 354 841 142 c 0
 841 128 843 111 843 94 c 0
 843 45 832 -8 753 -8 c 0
 705 -8 626 6 626 40 c 2
 626 45 l 1
 683 112 718 663 718 773 c 1xe8
 275 773 l 1
 224 774 194 809 194 838 c 0
 194 854 203 869 225 875 c 1
 350 875 533 878 735 883 c 1
 737 907 737 934 737 958 c 1
 414 958 l 2xe4
 312 958 230 968 230 1010 c 0
 230 1049 282 1057 336 1057 c 0
 379 1057 453 1052 520 1052 c 0xd4
 593 1052 663 1054 735 1059 c 1
 735 1071 l 1xe4
EndSplineSet
EndChar

StartChar: section
Encoding: 167 167 100
Width: 802
Flags: W
HStem: 1 108<202.036 474.055>
VStem: 105 130<695.065 887.433> 148 117<1156.99 1332.15> 541 144<168.935 362.127> 574 129<584.109 753.067>
LayerCount: 2
Fore
SplineSet
703 634 m 1xa8
 704 634 l 1
 704 566 663 502 589 465 c 1
 643 399 685 326 685 246 c 0
 685 139 604 1 364 1 c 0
 271 1 183 33 183 82 c 0
 183 109 218 121 256 121 c 0
 284 121 320 116 346 109 c 1
 477 110 541 206 541 257 c 0
 541 457 105 550 105 820 c 0xd0
 105 895 144 972 223 1018 c 1
 173 1099 148 1186 148 1275 c 0
 148 1385 219 1443 446 1443 c 0
 503 1443 626 1430 626 1392 c 0
 626 1308 265 1405 265 1277 c 0
 265 1046 703 943 703 634 c 1xa8
574 649 m 1xc8
 573 649 l 1
 573 754 442 840 327 925 c 1
 268 890 235 840 235 795 c 0
 235 701 356 622 470 549 c 1
 530 573 574 612 574 649 c 1xc8
EndSplineSet
EndChar

StartChar: currency
Encoding: 164 164 101
Width: 1579
Flags: W
HStem: 205 100<491.811 1018.19> 1180 105<599.52 1028.86>
VStem: 171 143<468.974 886.869> 1299 166<204.07 291.913 618.753 898.99>
LayerCount: 2
Fore
SplineSet
1298 779 m 1
 1301 778 l 1
 1301 957 1157 1180 761 1180 c 0
 702 1180 555 1120 517 1099 c 1
 517 1085 l 2
 517 1076 518 1066 518 1056 c 0
 518 1032 508 1009 442 1009 c 0
 384 1009 314 774 314 696 c 0
 314 687 325 678 325 669 c 0
 325 641 314 614 314 585 c 0
 314 527 330 462 438 421 c 1
 438 332 604 305 780 305 c 0
 1215 305 1298 640 1298 779 c 1
1299 251 m 2
 1300 293 l 1
 1151 235 899 205 699 205 c 0
 540 205 391 243 296 290 c 1
 274 253 248 201 184 201 c 0
 127 201 101 236 101 276 c 0
 101 315 186 360 213 392 c 1
 175 446 171 507 171 567 c 0
 171 692 176 977 265 1078 c 1
 235 1119 139 1160 139 1209 c 0
 139 1235 169 1255 201 1255 c 0
 269 1255 306 1209 362 1172 c 1
 423 1202 561 1285 657 1285 c 0
 838 1285 1014 1259 1166 1216 c 1
 1242 1260 1301 1351 1389 1351 c 1
 1458 1304 l 1
 1453 1241 1335 1165 1335 1141 c 0
 1335 1019 1452 902 1452 772 c 0
 1452 643 1365 525 1365 396 c 0
 1365 335 1465 308 1465 247 c 0
 1465 219 1436 195 1400 195 c 0
 1354 195 1298 212 1299 251 c 2
EndSplineSet
EndChar

StartChar: quotesingle
Encoding: 39 39 102
Width: 425
Flags: W
HStem: 1193 385<171.917 227.798>
VStem: 140 150<1282.93 1572.68>
LayerCount: 2
Fore
SplineSet
140 1531 m 0
 140 1559 183 1578 219 1578 c 0
 258 1578 278 1556 290 1531 c 1
 290 1525 l 2
 290 1521 284 1514 284 1511 c 0
 284 1407 239 1193 187 1193 c 0
 170 1193 140 1435 140 1531 c 0
EndSplineSet
EndChar

StartChar: quotedblleft
Encoding: 8220 8220 103
Width: 850
Flags: W
HStem: 1193 385
VStem: 127 254<1217.45 1358.28> 404 254<1218.45 1359.28>
LayerCount: 2
Fore
SplineSet
729 1578 m 1
 729 1507 l 1
 684 1473 595 1433 582 1382 c 1
 624 1358 658 1321 658 1280 c 0
 658 1228 589 1193 526 1193 c 0
 456 1193 426 1235 404 1280 c 1
 404 1286 l 1
 403 1290 409 1295 409 1299 c 0
 409 1392 528 1578 651 1578 c 2
 729 1578 l 1
452 1577 m 1
 452 1506 l 1
 404 1476 318 1429 305 1381 c 1
 347 1357 381 1320 381 1279 c 0
 381 1227 312 1192 250 1192 c 0
 179 1192 149 1234 127 1279 c 1
 127 1285 l 1
 126 1289 133 1294 133 1298 c 0
 133 1391 251 1577 374 1577 c 2
 452 1577 l 1
EndSplineSet
EndChar

StartChar: guillemotleft
Encoding: 171 171 104
Width: 954
Flags: W
HStem: -22 21G<779.5 854.5>
VStem: 92 378<643 823.5>
LayerCount: 2
Fore
SplineSet
92 697 m 0
 92 778 418 1406 511 1483 c 1
 511 1485 l 1
 518 1486 528 1489 535 1489 c 0
 573 1489 616 1473 619 1440 c 1
 479 1193 385 929 236 687 c 1
 279 526 700 65 700 -13 c 0
 700 -45 651 -59 617 -59 c 0
 559 -59 92 607 92 697 c 0
318 698 m 1
 321 757 658 1447 738 1447 c 0
 741 1447 743 1446 747 1446 c 1
 806 1411 l 1
 771 1193 470 869 470 702 c 0
 470 679 827 135 875 69 c 1
 875 33 l 2
 875 6 871 -22 838 -22 c 0
 721 -22 390 579 318 698 c 1
EndSplineSet
EndChar

StartChar: guilsinglleft
Encoding: 8249 8249 105
Width: 726
Flags: W
HStem: -22 21G<596.556 626.997>
VStem: 91 572.326
LayerCount: 2
Fore
SplineSet
91 698 m 5
 510.573 1446.24 l 5
 579 1411 l 5
 243 702 l 5
 663.326 43.4198 l 5
 611 -22 l 5
 91 698 l 5
EndSplineSet
EndChar

StartChar: guilsinglright
Encoding: 8250 8250 106
Width: 758
Flags: W
HStem: -19 21G<132.412 220.943>
VStem: 83 589
DStem2: 83 49 208 -19 0.5433 0.839539<10.8238 785.098>
LayerCount: 2
Fore
SplineSet
241.703 1445.25 m 5
 672 698 l 5
 208 -19 l 5
 153 -19 l 5
 83 49 l 5
 519 702 l 5
 184 1411 l 5
 241.703 1445.25 l 5
EndSplineSet
EndChar

StartChar: endash
Encoding: 8211 8211 107
Width: 1348
Flags: W
HStem: 636 105<152.665 1207.35>
LayerCount: 2
Fore
SplineSet
433 737 m 2
 471 737 637 741 819 741 c 0
 1022 741 1214 731 1214 683 c 0
 1214 654 1188 636 1152 636 c 0
 908 636 522 646 258 646 c 0
 217 646 151 649 151 691 c 0
 151 719 174 737 211 737 c 2
 433 737 l 2
EndSplineSet
EndChar

StartChar: periodcentered
Encoding: 183 183 108
Width: 481
Flags: W
HStem: 633 152<159.354 332.334>
VStem: 148 195<645.324 769.691>
LayerCount: 2
Fore
SplineSet
148 706 m 0
 148 747 195 785 248 785 c 0
 299 785 343 746 343 708 c 0
 343 661 296 633 238 633 c 0
 188 633 148 669 148 706 c 0
EndSplineSet
EndChar

StartChar: paragraph
Encoding: 182 182 109
Width: 1301
Flags: W
HStem: -20 21G<1040.13 1100.64> 1097.49 98.5078<362.25 680> 1767.98 109.016<841.948 1022.32>
VStem: 88 147<1323.1 1587.8> 646 157<4 161> 680 161.948<1485.93 1740> 963 182<43 459.847> 1022.32 122.675<1351.14 1739>
LayerCount: 2
Fore
SplineSet
88 1385 m 2xf8
 88 1743 373 1877 821 1877 c 2
 1230 1877 l 1
 1230 1791 l 1
 1145 1739 l 1
 1145 36 l 1xf9
 1076 -20 l 1
 963 43 l 1xf2
 1022.32 1767.98 l 1
 841.948 1767.98 l 1xf5
 882 980 l 1
 803 4 l 1
 646 4 l 1
 710.233 1097.49 l 1
 367.233 1097.49 225 1151 88 1384 c 1
 88 1385 l 2xf8
235 1455 m 0
 235 1224 426 1196 680 1196 c 1
 680 1740 l 1xf4
 569 1740 l 2
 378 1740 235 1592 235 1455 c 0
EndSplineSet
EndChar

StartChar: bullet
Encoding: 8226 8226 110
Width: 831
Flags: W
HStem: 485 526<279.923 574.542>
VStem: 143 562<618.65 863.769>
LayerCount: 2
Fore
SplineSet
143 727 m 0
 143 847 265 1011 398 1011 c 0
 645 1011 705 866 705 779 c 0
 705 694 657 485 410 485 c 0
 261 485 144 595 144 665 c 0
 144 687 143 705 143 727 c 0
EndSplineSet
EndChar

StartChar: quotesinglbase
Encoding: 8218 8218 111
Width: 563
Flags: W
HStem: -202 386<266.281 300.921>
VStem: 188 253<17.3784 158.551>
LayerCount: 2
Fore
SplineSet
116 -202 m 1
 116 -130 l 1
 160 -96 251 -54 264 -4 c 1
 221 20 188 55 188 97 c 0
 188 149 256 184 319 184 c 0
 389 184 419 143 441 98 c 1
 441 91 l 2
 441 87 437 82 437 77 c 0
 437 -15 319 -202 195 -202 c 2
 116 -202 l 1
EndSplineSet
EndChar

StartChar: quotedblbase
Encoding: 8222 8222 112
Width: 884
Flags: W
HStem: -201 385<-50.5402 -26.5382 269.717 307.655>
VStem: 189 251<21.8831 160.982> 510 250<19.3285 160.982>
LayerCount: 2
Fore
SplineSet
410 -201 m 1
 410 -130 l 1
 469 -100 573 -52 586 -4 c 1
 543 19 510 56 510 97 c 0
 510 149 579 184 641 184 c 0
 710 184 760 134 760 83 c 0
 760 -3 649 -201 517 -201 c 2
 410 -201 l 1
111 -164 m 1
 142 -114 255 -44 266 -4 c 1
 223 20 189 55 189 97 c 0
 189 150 258 184 322 184 c 0
 391 184 440 134 440 83 c 0
 440 -12 323 -197 180 -197 c 1
 111 -164 l 1
EndSplineSet
EndChar

StartChar: quotedblright
Encoding: 8221 8221 113
Width: 903
Flags: W
HStem: 1194 386
VStem: 198 253<1414.18 1555.55> 517 253<1414 1554.55>
LayerCount: 2
Fore
SplineSet
770 1493 m 1
 770 1474 l 2
 770 1382 649 1194 524 1194 c 2
 446 1194 l 1
 446 1266 l 1
 494 1296 580 1343 593 1391 c 1
 551 1415 517 1452 517 1493 c 0
 517 1545 586 1580 649 1580 c 0
 716 1580 751 1538 770 1493 c 1
126 1196 m 1
 126 1267 l 1
 172 1301 261 1341 274 1392 c 1
 231 1416 198 1452 198 1494 c 0
 198 1546 266 1581 329 1581 c 0
 399 1581 429 1539 451 1494 c 1
 451 1488 l 2
 451 1484 446 1479 446 1474 c 0
 446 1382 329 1196 205 1196 c 2
 126 1196 l 1
EndSplineSet
EndChar

StartChar: guillemotright
Encoding: 187 187 114
Width: 988
Flags: W
HStem: -36 13G<129 161.5 361 406.5>
VStem: 519 153<698 824.872>
LayerCount: 2
Fore
SplineSet
478 1484 m 1
 577 1408 902 784 902 699 c 0
 902 609 435 -57 378 -57 c 0
 344 -57 294 -44 294 -11 c 0
 294 67 715 527 759 688 c 1
 610 927 568 1210 374 1432 c 1
 378 1466 415 1489 459 1489 c 0
 464 1489 473 1486 478 1485 c 1
 478 1484 l 1
243 1446 m 2
 243 1445 243 1444 243 1443 c 0
 369 1399 668 799 672 698 c 1
 208 -19 l 1
 191 -19 170 -23 153 -23 c 0
 105 -23 84 19 83 49 c 1
 130 116 519 680 519 702 c 0
 519 908 187 1202 184 1411 c 1
 243 1446 l 2
EndSplineSet
EndChar

StartChar: ellipsis
Encoding: 8230 8230 115
Width: 1476
Flags: W
HStem: -32 152<158.354 331.334 659.168 832.148 1162.17 1335.15>
VStem: 147 195<-19.6762 104.691> 648 195<-19.6762 105.656> 1151 195<-19.6762 105.656>
LayerCount: 2
Fore
SplineSet
147 41 m 0
 147 82 194 120 247 120 c 0
 298 120 342 81 342 43 c 0
 342 -4 295 -32 237 -32 c 0
 187 -32 147 4 147 41 c 0
648 41 m 0
 648 82 694 120 748 120 c 0
 798 120 843 81 843 43 c 0
 843 -4 796 -32 737 -32 c 0
 688 -32 648 4 648 41 c 0
1151 41 m 0
 1151 82 1197 120 1251 120 c 0
 1301 120 1346 81 1346 43 c 0
 1346 -4 1299 -32 1240 -32 c 0
 1191 -32 1151 4 1151 41 c 0
EndSplineSet
EndChar

StartChar: grave
Encoding: 96 96 117
Width: 771
Flags: W
HStem: 1525 201
VStem: 122.77 501.23
LayerCount: 2
Fore
SplineSet
624 1565 m 5
 561 1525 l 5
 122.77 1642.18 l 5
 163 1726 l 5
 624 1565 l 5
EndSplineSet
EndChar

StartChar: acute
Encoding: 180 180 118
Width: 587
Flags: HW
HStem: 1285 288
VStem: 69.8824 450
LayerCount: 2
Fore
SplineSet
519.883 1517 m 5
 159.883 1285 l 5
 69 1339.53 l 5
 417.883 1573 l 5
 519.883 1517 l 5
EndSplineSet
EndChar

StartChar: circumflex
Encoding: 710 710 119
Width: 662
Flags: W
HStem: 927 432<404 412>
VStem: 118 429.691
DStem2: 118 976 205 928 0.508199 0.86124<2.8738 305.808>
LayerCount: 2
Fore
SplineSet
352 1193 m 1
 205 928 l 1
 118 976 l 1
 344 1359 l 5
 412 1359 l 5
 547.691 977.568 l 1
 461 927 l 1
 404 927 l 1
 352 1193 l 1
EndSplineSet
EndChar

StartChar: tilde
Encoding: 732 732 120
Width: 882
Flags: W
HStem: 997 226<186.869 259 621.383 709.442> 997 103<475.845 553>
VStem: 130 129<1028.06 1094> 621 134<1112.39 1200.58>
LayerCount: 2
Fore
SplineSet
130 1055 m 0x70
 130 1143 200 1224 324 1224 c 1
 456 1172 l 1
 469 1145 511 1100 553 1100 c 1x70
 553 1101 l 1
 576 1117 621 1120 621 1146 c 0
 621 1159 607 1176 605 1191 c 1
 616 1209 637 1223 664 1223 c 0xb0
 728 1223 755 1171 755 1129 c 0
 755 1058 676 997 584 997 c 0
 473 997 394 1064 328 1123 c 1
 328 1125 l 1
 259 1094 l 1
 259 996 l 1
 211 996 130 1013 130 1055 c 0x70
EndSplineSet
EndChar

StartChar: macron
Encoding: 175 175 121
Width: 879
Flags: HW
HStem: 704 96<171 689>
VStem: 151 575
LayerCount: 2
Fore
SplineSet
726 749 m 1
 689 704 l 1
 171 704 l 1
 151 756 l 1
 155 800 l 1
 729 800 l 1
 726 749 l 1
EndSplineSet
EndChar

StartChar: breve
Encoding: 728 728 122
Width: 709
Flags: W
HStem: 867 95<289.175 427.643>
VStem: 442 134<969.094 1129.24>
LayerCount: 2
Fore
SplineSet
576 1048 m 1
 576 1031 l 1
 528 945 501 867 359 867 c 0
 194 867 134 992 134 1100 c 2
 134 1110 l 1
 183 1142 l 1
 276 1142 252 1001 325 962 c 1
 381 962 l 2
 408 962 442 1025 442 1043 c 0
 442 1088 442 1133 518 1133 c 0
 554 1133 588 1110 588 1081 c 0
 588 1075 579 1055 576 1048 c 1
EndSplineSet
EndChar

StartChar: dotaccent
Encoding: 729 729 123
Width: 478
Flags: W
HStem: 1390 152<154.354 327.334>
VStem: 143 195<1402.32 1526.69>
LayerCount: 2
Fore
SplineSet
143 1463 m 0
 143 1504 190 1542 243 1542 c 0
 294 1542 338 1503 338 1465 c 0
 338 1418 291 1390 233 1390 c 0
 183 1390 143 1426 143 1463 c 0
EndSplineSet
EndChar

StartChar: dieresis
Encoding: 168 168 124
Width: 992
Flags: W
HStem: 954 141<144.612 311.57 690.672 858.656>
VStem: 137 183<968.667 1084.35> 683 183<966.321 1085.43>
LayerCount: 2
Fore
SplineSet
683 1023 m 0
 683 1062 727 1098 778 1098 c 0
 826 1098 866 1061 866 1025 c 0
 866 983 818 954 766 954 c 0
 719 954 683 988 683 1023 c 0
214 954 m 0
 163 954 137 984 137 1021 c 0
 137 1061 175 1095 228 1095 c 0
 277 1095 320 1065 320 1026 c 0
 320 984 264 954 214 954 c 0
EndSplineSet
EndChar

StartChar: ring
Encoding: 730 730 125
Width: 552
Flags: W
HStem: 1062 37.7101<209.156 315.513> 1237.25 53.7489<228.64 336.967>
VStem: 129 69.351<1102.73 1214.7> 348.872 73.1281<1115.56 1232.28>
LayerCount: 2
Fore
SplineSet
129 1169 m 0
 129 1230 198 1291 280 1291 c 0
 355 1291 422 1232 422 1176 c 0
 422 1105 349 1062 260 1062 c 0
 188 1062 129 1115 129 1169 c 0
348.872 1176.48 m 1
 346.817 1214.75 316.378 1239.06 288.251 1237.25 c 1
 245.937 1237.25 198.351 1198.37 198.351 1145.35 c 0
 198.351 1119.55 214.274 1099.71 256.784 1099.71 c 0
 259.727 1099.71 262.798 1099.81 266 1100 c 0
 311.572 1100 348.872 1138.98 348.872 1176.48 c 1
EndSplineSet
EndChar

StartChar: cedilla
Encoding: 184 184 126
Width: 609
Flags: W
HStem: -504.763 123.763<184 314.22> -20.2306 20G<185.529 266>
VStem: 189.993 76.0068<-64.4559 -0.230617>
LayerCount: 2
Fore
SplineSet
279.742 -504.763 m 4
 231.704 -504.763 178.168 -481.367 124 -425 c 1
 184 -381 l 1
 282.742 -381 317.701 -357.455 317.701 -325.178 c 0
 317.701 -269.938 215.301 -189.123 155 -157 c 1
 189.993 -0.230617 l 1
 266 -0.230617 l 1
 266 -91 l 1
 496.117 -191.265 538.996 -504.763 279.742 -504.763 c 4
EndSplineSet
EndChar

StartChar: hungarumlaut
Encoding: 733 733 127
Width: 1091
Flags: HW
HStem: -6 21G<71.0909 129.5> 296 81<1458.94 1562.73>
LayerCount: 2
Fore
SplineSet
468.295 2.09668 m 1
 417 40 l 1
 923 377 l 1
 1025.32 308.421 l 1
 468.295 2.09668 l 1
529.661 317.868 m 1
 140.347 -41.7627 l 1
 69 16 l 1
 426 363 l 1
 529.661 317.868 l 1
EndSplineSet
EndChar

StartChar: ogonek
Encoding: 731 731 128
Width: 559
Flags: W
HStem: -366 65<206.886 331.733>
VStem: 113 91<-300.91 -138.811>
LayerCount: 2
Fore
SplineSet
434 20 m 1
 342 -39 204 -145 204 -250 c 0
 204 -266 211 -301 239 -301 c 0
 279 -301 318 -286 351 -268 c 1
 351 -302 l 2
 351 -342 273 -366 231 -366 c 0
 155 -366 113 -313 113 -259 c 0
 113 -141 239 -38 363 20 c 1
 434 20 l 1
EndSplineSet
EndChar

StartChar: caron
Encoding: 711 711 129
Width: 712
Flags: HW
HStem: 929 428
VStem: 135 155<1191.5 1286> 421 139<1279.42 1332.93>
LayerCount: 2
Fore
SplineSet
575.565 1304.03 m 1
 417 925 l 1
 280 929 l 1
 135 1310 l 1
 221 1357 l 1
 280 1356 l 1
 356 1042 l 1
 421 1333 l 1
 454.667 1333 488.333 1333 522 1333 c 1
 575.565 1304.03 l 1
EndSplineSet
EndChar

StartChar: emdash
Encoding: 8212 8212 130
Width: 1820
Flags: W
HStem: 680 99<151.951 1678.05>
LayerCount: 2
Fore
SplineSet
1370 779 m 2
 1515 779 1681 773 1681 725 c 0
 1681 683 1571 680 1458 680 c 2
 311 680 l 2
 234 680 151 683 151 733 c 0
 151 761 174 779 211 779 c 2
 1370 779 l 2
EndSplineSet
EndChar

StartChar: AE
Encoding: 198 198 131
Width: 1496
Flags: W
HStem: -50.2443 21G<893.551 1114.19> -7 110<1227 1337> 621 95<1016 1369> 1450 94<1011 1374>
VStem: 862 149<728 1253> 877 139<133.533 621>
DStem2: 33 48 140.692 3.48404 0.496639 0.867957<14.8461 716.121 850.946 1457.6> 1016 82 922.485 -50.2443 0.994602 0.103762<0 310.032>
LayerCount: 2
Fore
SplineSet
1374 1450 m 1xf4
 1011 1450 l 1
 1011 716 l 1xf8
 1369 716 l 1
 1369 621 l 1
 1016 621 l 1
 1016 82 l 1
 1337 103 l 1
 1337 -7 l 1
 922.485 -50.2443 l 1
 846.882 2.0142 l 1
 877 253 l 1
 877 633 l 1
 491 611 l 1
 140.692 3.48404 l 1
 33 48 l 1
 889 1544 l 1
 1374 1544 l 1
 1374 1450 l 1xf4
862 728 m 1
 862 1253 l 1
 558 728 l 1
 862 728 l 1
EndSplineSet
EndChar

StartChar: ordfeminine
Encoding: 170 170 132
Width: 1179
Flags: W
HStem: 375 53<551.428 666> 817 45<498.63 798.209>
VStem: 914 100<495.571 728.656>
LayerCount: 2
Fore
SplineSet
914 544 m 0
 914 559 914 575 914 591 c 0
 914 702 898 817 639 817 c 1
 521 815 l 1
 500 819 454 823 381 827 c 1
 266 652 l 1
 242 580 190 503 164 503 c 0
 155 503 148 514 148 539 c 1
 156 549 223 1088 526 1365 c 1
 587 1363 l 1
 624 1363 651 1367 669 1375 c 1
 708 1375 743 1362 751 1344 c 1
 992 665 l 1
 1006 605 1014 563 1014 539 c 0
 1014 515 1007 500 993 494 c 1
 929 494 914 502 914 544 c 0
413 892 m 1
 577 876 l 1
 701 871 773 866 794 862 c 1
 840 862 l 1
 624 1282 l 1
 542 1115 472 985 413 892 c 1
941 428 m 0
 966 428 1000 412 1000 393 c 0
 1000 379 347 375 287 375 c 0
 251 375 221 389 221 410 c 0
 221 423 906 428 941 428 c 0
EndSplineSet
EndChar

StartChar: Lslash
Encoding: 321 321 133
Width: 783
Flags: W
HStem: -23 21G<236 272> -4 106<331.391 469.204 470.565 576.052> 703 88<305 665.586>
VStem: 132 146<1048.79 1564.81> 186 145<102.241 612.938>
LayerCount: 2
Fore
SplineSet
331 102 m 1x68
 521 102 l 1
 550 87 578 83 578 54 c 0
 578 25 551 -4 511 -4 c 0x68
 498 -4 482 1 470 3 c 1
 453 0 437 -1 420 -1 c 0
 391 -1 362 2 334 2 c 1
 316 -15 286 -23 258 -23 c 0
 214 -23 169 7 169 42 c 0
 169 73 186 101 186 132 c 0xa8
 186 322 177 512 166 702 c 1
 127 706 92 728 92 760 c 0
 92 769 120 775 162 780 c 1
 148 1029 132 1279 132 1529 c 0
 132 1556 165 1571 197 1571 c 0
 240 1571 278 1546 278 1512 c 0xb0
 278 1271 304 1030 305 791 c 1
 418 796 541 798 578 798 c 0
 621 798 667 775 667 739 c 0
 667 715 448 706 300 703 c 1
 300 701 l 2
 300 523 331 345 331 167 c 2
 331 102 l 1x68
EndSplineSet
EndChar

StartChar: Oslash
Encoding: 216 216 134
Width: 1029
Flags: W
HStem: -16 87<399.951 660.899> 1491 78<357 513.478>
VStem: 126 122<586.978 1310.94> 133 91<-224 -142.43> 209 187<84.0547 274.93> 541 184<1547 1640.06> 654 148<1701.29 1798> 770 128<200.185 922.965>
LayerCount: 2
Fore
SplineSet
851 1206 m 1xc4
 850 1207 l 1
 858 967 898 723 898 459 c 0
 898 301 897 -16 502 -16 c 0
 438 -16 377 -10 322 4 c 1
 290 -91 246 -185 224 -280 c 1
 133 -224 l 1xd5
 133 -103 209 8 209 129 c 1xc8
 142 302 126 518 126 722 c 0
 126 730 126 738 126 746 c 0
 126 869 130 990 130 1107 c 0
 130 1225 130 1569 422 1569 c 0
 464 1569 510 1559 541 1547 c 1
 541 1551 l 1xe4
 586 1632 612 1716 654 1798 c 1
 802 1798 l 1xc2
 797 1688 725 1582 725 1472 c 0
 725 1455 773 1430 789 1419 c 1
 789 1365 l 1
 790 1316 851 1271 851 1222 c 2
 851 1206 l 1xc4
676 1295 m 1
 573 929 396 505 396 144 c 0xc9
 396 91 416 71 537 71 c 0
 747 71 770 318 770 463 c 2
 770 531 l 2
 770 786 766 1043 676 1295 c 1
309 505 m 1
 386 815 515 1148 515 1458 c 0
 515 1478 467 1491 432 1492 c 1
 432 1491 l 1
 357 1491 l 1
 357 1480 l 1
 261 1386 248 996 248 850 c 0xe0
 248 735 287 620 309 505 c 1
EndSplineSet
EndChar

StartChar: OE
Encoding: 338 338 135
Width: 1943
Flags: HW
HStem: -22 102<1484 1875.11> 9 103<678.972 1335.41> 758 98<1452.94 1690.5> 1426 99<1413 1772.2> 1449 102<512.634 1175.57>
VStem: 109 121<751 1172.69> 1289 124<1024.51 1390.51> 1356 128<141.254 541.83>
LayerCount: 2
Fore
SplineSet
998 112 m 0
 1068 112 1356 122 1356 168 c 1x6d
 1289 1371 l 1
 1166 1436 950 1449 776 1449 c 0
 286 1449 230 1127 230 957 c 0
 230 911 231 865 231 820 c 0
 231 488.343 362.327 112 998 112 c 0
1882.95 -16 m 1
 1426 -16 l 1xb5
 1372.52 57.0322 l 1
 871.859 0.034721 l 1
 150.884 0.034721 109 471.871 109 809 c 0
 109 1032 112 1551 710 1551 c 0x6d
 905 1551 1122 1546 1291 1494 c 1
 1291 1525 l 1
 1783 1525 l 1
 1783 1426 l 1
 1413 1426 l 1x36
 1463.18 854 l 1
 1687 854 l 1
 1687 754 l 1
 1447.57 754 l 1
 1484 80 l 1
 1882.95 80 l 1
 1882.95 -16 l 1
EndSplineSet
EndChar

StartChar: ordmasculine
Encoding: 186 186 136
Width: 1270
Flags: W
HStem: 431 53<561.375 660.507> 538 60<468.778 863.728> 1294 39<472.769 759.367>
VStem: 193 85<759.171 1143.1> 1031 83<713.18 1085.5>
LayerCount: 2
Fore
SplineSet
569 1333 m 0
 1070 1333 1114 1099 1114 825 c 0
 1114 718 992 538 667 538 c 0
 312 538 193 654 193 887 c 0
 193 1006 192 1333 569 1333 c 0
1029 842 m 1
 1031 841 l 1
 1031 1111 947 1294 592 1294 c 0
 409 1294 278 1181 278 954 c 0
 278 717 407 598 646 598 c 0
 902 598 1029 679 1029 842 c 1
946 484 m 2
 947 484 l 2
 989 484 1038 468 1038 449 c 0
 1038 435 332 431 274 431 c 0
 248 431 218 445 218 466 c 0
 218 479 891 484 946 484 c 2
EndSplineSet
EndChar

StartChar: ae
Encoding: 230 230 137
Width: 1393
Flags: W
HStem: -14 96<897 1227.36> 592 55<438.266 753.074> 597 88<895.987 1135> 597 79<440.064 758 891 1131.77> 1240 114<882.883 1197.35>
VStem: 754 143<82 248.343 257.298 592 676 947.501> 773 126<83.3766 586.702 679.52 1080.98>
LayerCount: 2
Fore
SplineSet
758 665 m 1xca
 762 761 773 856 773 952 c 0
 773 995 773 1039 769 1082 c 1
 645 939 518 796 435 647 c 1
 543 649 653 654 758 665 c 1xca
817 -13 m 1
 816 -14 l 1
 795 -14 754 -2 754 18 c 0
 754 95 782 174 782 252 c 0
 782 365 765 479 765 592 c 1xcc
 640 587 513 589 401 570 c 1
 181 -8 l 1
 151 -8 94 26 94 47 c 0
 94 185 536 1321 842 1344 c 1
 918 1351 1016 1354 1086 1354 c 0
 1134 1354 1199 1345 1199 1298 c 2
 1199 1250 l 1
 1116 1240 1004 1240 881 1240 c 1
 883 1149 899 1058 899 966 c 0
 899 869 891 773 891 676 c 1x9a
 998 678 1066 685 1135 685 c 1xaa
 1190 647 l 1xca
 1190 600 1105 597 1052 597 c 2xaa
 890 597 l 1
 891 425 897 254 897 82 c 1x9c
 1035 83 1133 103 1232 103 c 0
 1269 103 1320 87 1320 53 c 0
 1320 -7 1102 -14 936 -14 c 0
 875 -14 835 -13 817 -13 c 1
EndSplineSet
EndChar

StartChar: dotlessi
Encoding: 305 305 138
Width: 724
Flags: W
HStem: 0 21G<353.5 392> 16 114<196 285.53 439 641.735> 1254 102<74.9219 273.874>
VStem: 268 145<173.641 1065.91 1074.67 1235> 286 147<128.125 573.203 587.125 1233.05>
LayerCount: 2
Fore
SplineSet
433 246 m 2xa8
 433 185 l 2
 433 166 425 147 439 131 c 1
 439 128 l 1
 459 128 507 130 537 130 c 0
 590 130 646 122 646 79 c 0
 646 43 603 16 558 16 c 0x68
 528 16 499 23 469 23 c 0
 448 23 416 0 368 0 c 0
 339 0 308 4 286 20 c 1
 276 19 264 18 253 18 c 0
 213 18 174 26 155 55 c 1
 155 78 169 100 196 110 c 1
 196 118 l 1
 281 118 l 1
 282 127 286 136 286 145 c 0xa8
 286 290 268 435 268 580 c 0
 268 732 282 884 282 1036 c 0
 282 1109 278 1182 269 1254 c 1
 218 1254 l 1
 199 1255 178 1254 157 1254 c 0
 113 1254 74 1262 74 1309 c 0
 74 1353 155 1356 205 1356 c 0
 213 1356 221 1356 227 1356 c 0
 300 1356 569 1355 569 1273 c 0
 569 1263 559 1244 554 1235 c 1
 417 1235 l 1
 425 1179 428 1129 428 1072 c 0
 428 942 413 811 413 681 c 0xb0
 413 536 433 391 433 246 c 2xa8
EndSplineSet
EndChar

StartChar: lslash
Encoding: 322 322 139
Width: 739
Flags: W
HStem: -29 16G<203 240.5 515.5 571.5> -10 87<309.257 550.388> 660 137<317 617.994>
VStem: 150 141<89.8906 511.156> 169 148<223.335 656 802.75 1301.56>
LayerCount: 2
Fore
SplineSet
78 715 m 2xe8
 78 716 l 2
 78 739 174 845 174 954 c 2
 174 969 l 1
 166 1033 166 1097 166 1161 c 0
 166 1207 168 1355 259 1355 c 0
 295 1355 326 1332 326 1304 c 0
 326 1252 308 1200 308 1148 c 0
 308 1027 312 906 315 785 c 1
 421 795 530 797 566 797 c 0
 608 797 654 774 654 738 c 0
 654 688 463 668 317 660 c 1
 317 658 317 656 317 654 c 0xe8
 303 628 302 597 302 568 c 0
 302 560 302 552 302 544 c 0
 302 434 291 332 291 218 c 0
 291 153 303 77 381 77 c 0
 406 77 449 80 491 80 c 0
 562 80 634 71 634 20 c 0
 634 -12 589 -30 554 -34 c 1
 477 -15 397 -10 316 -10 c 1
 289 -22 256 -29 225 -29 c 0
 181 -29 150 6 150 38 c 0xf0
 150 244 161 450 169 656 c 1
 168 656 166 656 165 656 c 0
 122 656 78 680 78 715 c 2xe8
EndSplineSet
EndChar

StartChar: oslash
Encoding: 248 248 140
Width: 955
Flags: W
HStem: -11 85<313.617 594.849> 1280 105<395 467.396> 1574 20G<583.5 738>
VStem: 117 113<507.842 1199.77> 188 123<82.9768 313.97> 469 208<1193.67 1280> 603 135<1505.79 1594> 702 124<194.686 878.989>
LayerCount: 2
Fore
SplineSet
188 123 m 0xed
 188 319 117 565 117 779 c 2
 117 996 l 2
 117 1107 117 1385 390 1385 c 0
 429 1385 468 1376 503 1367 c 1
 503 1371 l 1
 532 1445 564 1521 603 1594 c 1
 738 1594 l 1xf2
 738 1494 688 1398 677 1298 c 1
 677 1238 l 1
 732 1186 783 1127 783 1065 c 2
 783 1049 l 2
 783 849 826 645 826 423 c 0
 826 277 822 -11 420 -11 c 0
 359 -11 302 -6 272 5 c 1
 265 -38 251 -245 177 -245 c 0
 140 -245 122 -217 122 -193 c 2
 122 -191 l 2
 122 -86 188 16 188 123 c 0xed
620 1125 m 1
 619 1126 l 1
 528 815 367 441 311 136 c 1
 311 88 342 74 463 74 c 0
 689 74 702 315 702 424 c 2
 702 459 l 2xe9
 702 681 699 905 620 1125 c 1
395 1280 m 1
 326 1308 l 1
 326 1298 l 1
 240 1215 230 906 230 780 c 0
 230 684 256 588 278 492 c 1
 342 753 469 1017 469 1280 c 1xf4
 395 1280 l 1
EndSplineSet
EndChar

StartChar: oe
Encoding: 339 339 141
Width: 1890
Flags: W
HStem: -39 85<454.159 723.116> -28 104<1511.3 1799.03> 710 114<1503.15 1644.78> 1196 155<1510.19 1728.6> 1268 109<335.064 693.274>
VStem: 110 146<361.462 712.998 713 1117.75> 928 140<296.024 987.828> 1354 156<89.9375 174 1207 1233.18>
LayerCount: 2
Fore
SplineSet
881 1040 m 1xaf
 880 1076 l 1
 873 1170 730 1268 515 1268 c 2
 356 1268 l 1
 295 1149 275 1027 275 905 c 0
 275 842 256 779 256 716 c 0
 256 612 281 46 568 46 c 0
 899 46 928 453 928 563 c 0
 928 722 884 881 881 1040 c 1xaf
346 1377 m 0
 945 1377 1068 1106 1068 797 c 2
 1068 550 l 2
 1068 367 1050 -39 585 -39 c 0
 152 -39 112 409 112 625 c 0
 112 657 114 676 114 703 c 0
 114 710 113 713 110 713 c 1
 110 750 l 2
 110 859 109 1377 346 1377 c 0
1468 1352 m 1
 1468 1351 l 1
 1522 1351 1786 1322 1786 1260 c 0
 1786 1228 1743 1206 1708 1196 c 1
 1643 1213 1575 1229 1507 1235 c 1
 1509 1206 1510 1176 1510 1147 c 0
 1510 1049 1499 951 1499 853 c 0
 1499 843 1504 831 1507 821 c 1
 1529 821 1565 824 1601 824 c 0
 1665 824 1730 815 1730 768 c 0
 1730 731 1699 692 1646 692 c 0
 1620 692 1591 698 1570 710 c 1
 1503 710 l 1
 1508 658 1510 614 1510 562 c 0
 1510 439 1499 314 1499 191 c 0
 1499 138 1509 76 1595 76 c 0
 1618 76 1660 81 1700 81 c 0
 1752 81 1802 72 1802 31 c 0
 1802 -14 1735 -28 1687 -28 c 2
 1436 -28 l 2x77
 1391 -28 1354 0 1354 35 c 2
 1354 89 l 1
 1365 109 1366 129 1366 150 c 0
 1366 158 1366 166 1366 174 c 0
 1366 261 1354 349 1354 436 c 0
 1354 635 1371 835 1371 1034 c 0
 1371 1092 1358 1149 1358 1207 c 0
 1358 1266 1370 1352 1468 1352 c 1
EndSplineSet
EndChar

StartChar: germandbls
Encoding: 223 223 142
Width: 1002
Flags: W
HStem: -47 21G<204.5 264.5> 1473 112<325.341 566.856>
VStem: 143 130<804.335 1417.93> 149 164<-40.125 533.935> 645 177<1137.36 1394.22> 770 128<299.247 598.849>
LayerCount: 2
Fore
SplineSet
595 49 m 1xc4
 586 48 571 45 563 45 c 0
 524 45 460 57 460 81 c 0
 460 134 770 240 770 409 c 0xc4
 770 789 394 776 394 854 c 0
 394 898 645 1106 645 1274 c 0
 645 1321 599 1473 454 1473 c 0
 299 1473 273 1350 273 1294 c 0xe8
 273 878 313 463 313 46 c 0
 313 -2 302 -47 227 -47 c 0
 182 -47 149 -37 149 4 c 0xd0
 149 182 162 360 162 538 c 0
 162 775 143 1012 143 1249 c 0
 143 1375 185 1585 454 1585 c 0
 779 1585 822 1367 822 1249 c 0xe8
 822 1109 741 977 589 859 c 1
 858 744 898 635 898 444 c 0
 898 294 818 143 595 49 c 1xc4
EndSplineSet
EndChar

StartChar: onesuperior
Encoding: 185 185 143
Width: 789
Flags: W
HStem: -9 95<231.549 399.586> -8 104<511 713.859> 1479 96<79.044 295.963>
VStem: 302 110<1018.44 1471.83> 383 128<96.1245 564.069>
LayerCount: 2
Fore
SplineSet
383 120 m 0xa8
 383 519 302 923 302 1308 c 0
 302 1329 306 1356 306 1383 c 0
 306 1432 292 1479 214 1479 c 0
 197 1479 175 1477 152 1477 c 0
 113 1477 77 1483 77 1521 c 0
 77 1574 236 1575 292 1575 c 0
 334 1575 385 1574 409 1541 c 1
 407 1534 406 1527 406 1520 c 0
 406 1499 412 1477 412 1455 c 0xb0
 412 1329 453 1205 453 1079 c 0
 453 756 511 433 511 109 c 2
 511 96 l 1
 544 98 576 102 609 102 c 1
 609 103 l 1
 656 103 721 99 721 52 c 0
 721 -4 510 -8 418 -8 c 0x68
 379 -8 368 -9 338 -9 c 0
 285 -9 230 -3 230 47 c 2
 230 91 l 1
 247 90 299 86 324 86 c 0
 355 86 383 93 383 120 c 0xa8
EndSplineSet
EndChar

StartChar: logicalnot
Encoding: 172 172 144
Width: 1687
Flags: W
HStem: 711 124<153.205 660.5>
VStem: 1397 121<539.768 724.993>
LayerCount: 2
Fore
SplineSet
1400 659 m 1
 1399 659 l 1
 1399 725 1375 733 1230 733 c 0
 835 733 448 711 205 711 c 0
 169 711 139 735 139 763 c 0
 139 822 283 835 422 835 c 0
 567 835 727 828 786 828 c 0
 1024 828 1257 848 1456 848 c 0
 1498 848 1543 824 1543 790 c 0
 1543 766 1534 741 1518 720 c 1
 1518 658 1525 596 1550 537 c 1
 1544 509 1521 475 1479 475 c 0
 1409 475 1397 536 1397 592 c 0
 1397 618 1400 643 1400 659 c 1
EndSplineSet
EndChar

StartChar: mu
Encoding: 181 181 145
AltUni2: 0003bc.ffffffff.0
Width: 1140
Flags: W
HStem: -31 62<346.338 598.419>
VStem: 61 138<1017.73 1285.79> 79 120<1013 1114> 88 164<-236.959 11> 775 160<443.252 1049.5> 809 153<915.672 1382.94>
LayerCount: 2
Fore
SplineSet
935 878 m 1x88
 877 672 980 -27 485 -31 c 0
 386 -31 307 -15 246 11 c 1
 250 -48 252 -107 252 -166 c 0
 252 -211 224 -248 148 -248 c 0
 112 -248 88 -230 88 -202 c 2
 88 99 l 2x98
 88 215 79 356 79 475 c 2
 79 484 l 2xa0
 79 697 94 824 94 1013 c 0
 94 1114 87 1213 61 1306 c 1
 61 1355 l 1
 152 1355 199 1289 199 1232 c 2xc0
 199 241 l 2
 199 152 289 31 526 31 c 0
 718 31 775 480 775 559 c 0xa8
 775 808 809 1057 809 1307 c 0
 809 1319 807 1330 807 1341 c 0
 807 1369 816 1389 880 1389 c 0
 958 1389 962 1336 962 1290 c 0x84
 962 1221 944 1151 944 1084 c 0
 944 1027 932 970 932 913 c 0
 932 901 935 890 935 878 c 1x88
EndSplineSet
EndChar

StartChar: trademark
Encoding: 8482 8482 146
Width: 1734
Flags: W
HStem: 1475 99<98 325.856> 1484 111<124.022 331.135 463.393 713>
VStem: 332 129<902.915 1482.17> 337 152<643.947 717.667 720.531 1360.36> 732 163<639.703 905.533> 749 130<795.187 1252.11> 1431 135<785.722 1138>
LayerCount: 2
Fore
SplineSet
1566 1152 m 0x62
 1566 1029 1574 902 1584 780 c 1
 1584 722 1580 624 1485 624 c 0
 1447 624 1416 641 1416 672 c 0
 1416 751 1431 828 1431 907 c 0
 1431 984 1423 1061 1420 1138 c 1
 1397 1101 1359 1076 1359 1035 c 2
 1359 1026 l 1
 1350 980 1293 844 1161 844 c 0
 974 844 921 1173 885 1253 c 1
 879 1167 879 1081 879 995 c 0x66
 879 927 895 860 895 792 c 0
 895 741 892 620 795 620 c 0
 744 620 732 657 732 689 c 0x4a
 732 763 749 835 749 909 c 0
 749 1001 747 1094 747 1188 c 0
 747 1302 751 1416 766 1528 c 1
 753 1485 662 1484 586 1484 c 2
 469 1484 l 1
 462 1445 461 1407 461 1368 c 0x66
 461 1205 483 1043 483 880 c 0
 483 826 482 772 475 718 c 1
 479 711 489 697 489 690 c 0
 489 653 432 636 393 628 c 1
 323 628 l 1
 336 659 337 711 337 752 c 0
 337 765 337 777 337 787 c 0x52
 337 924 324 1061 324 1198 c 0
 324 1266 332 1332 332 1400 c 0
 332 1428 331 1456 327 1484 c 1x62
 303 1482 253 1475 205 1475 c 0
 150 1475 98 1484 98 1520 c 2
 98 1574 l 1xa2
 235 1583 401 1595 576 1595 c 0
 622 1595 667 1591 713 1591 c 1
 770 1552 l 1
 770 1547 l 2
 770 1574 833 1616 868 1616 c 0
 908 1616 947 1594 979 1575 c 1
 973 1565 970 1554 970 1542 c 0
 970 1433 1152 1229 1178 1129 c 1
 1182 1128 l 1
 1252 1221 1384 1638 1522 1638 c 0
 1559 1638 1594 1616 1594 1586 c 0
 1594 1441 1566 1297 1566 1152 c 0x62
EndSplineSet
EndChar

StartChar: Eth
Encoding: 208 208 147
Width: 1394
Flags: W
HStem: 1125 119<68.5156 267.685> 1137 107<135.157 269 420 862.188> 1153 121<426.787 953>
VStem: 212 152<1670.59 2097> 339 152<204 590.848> 1115 2<983 1831>
LayerCount: 2
Fore
SplineSet
420 1141 m 1x34
 420 1140 l 1
 430 827 485 517 491 204 c 1x2c
 1034 419 1115 677 1115 983 c 0
 1115 1314 1096 1955 364 2097 c 1
 364 1829 l 2
 364 1635 369 1440 419 1252 c 1
 540 1256 709 1274 880 1274 c 0
 972 1274 1023 1230 1027 1194 c 1
 953 1153 l 1
 759 1153 564 1152 420 1141 c 1x34
447 45 m 1
 446 47 l 1
 402 57 361 74 339 107 c 1
 339 450 339 797 272 1137 c 1x4c
 226 1132 179 1125 133 1125 c 0
 90 1125 65 1154 65 1184 c 0
 65 1236 164 1244 218 1244 c 2x8c
 269 1244 l 1
 267 1548 212 1850 212 2154 c 0x54
 212 2182 244 2220 285 2220 c 0
 459 2220 1117 1966 1117 1831 c 0
 1117 1486 1269 1154 1269 809 c 0
 1269 507 1018 186 447 45 c 1
EndSplineSet
EndChar

StartChar: onehalf
Encoding: 189 189 148
Width: 2904
Flags: W
HStem: -15 5G<1069.5 1238 2184.5 2332.5> -9 95<231.694 381.98> -8 104<509 839.501 2344.13 2692> 1327 259<2355.03 2457.27> 1479 96<77.044 293.963>
VStem: 300 110<1018.44 1471.83> 382 127<96.1245 564.069> 2670 129<911.88 1447.17>
LayerCount: 2
Fore
SplineSet
382 120 m 1xc3
 381 120 l 1
 381 519 300 923 300 1308 c 0
 300 1329 304 1356 304 1383 c 0
 304 1432 290 1479 212 1479 c 0
 195 1479 173 1477 150 1477 c 0
 111 1477 75 1483 75 1521 c 0
 75 1574 234 1575 290 1575 c 0
 332 1575 383 1574 407 1541 c 1
 405 1534 404 1527 404 1520 c 0
 404 1499 410 1477 410 1455 c 0xcd
 410 1329 451 1205 451 1079 c 0
 451 756 509 433 509 109 c 2
 509 96 l 1
 563 98 616 102 669 102 c 1
 669 103 l 1
 746 103 851 99 851 52 c 0
 851 -4 509 -8 417 -8 c 0xab
 378 -8 368 -9 338 -9 c 0
 284 -9 230 -3 230 47 c 2
 230 91 l 1
 247 90 299 86 323 86 c 0
 355 86 382 93 382 120 c 1xc3
994 30 m 0
 994 126 1573 1553 1809 1553 c 0
 1869 1553 1924 1533 1924 1503 c 0
 1924 1326 1384 -31 1092 -31 c 1
 1047 -18 994 5 994 30 c 0
2064 55 m 1
 2510 321 2670 866 2670 1236 c 0
 2670 1305 2665 1492 2542 1500 c 1
 2464 1470 2503 1327 2359 1327 c 0
 2280 1327 2254 1357 2254 1390 c 0
 2254 1465 2340 1586 2513 1586 c 1xd1
 2513 1587 l 1
 2797 1587 2799 1357 2799 1201 c 0
 2799 775 2527 409 2337 86 c 1
 2490 99 2591 107 2692 107 c 1
 2773 55 l 1
 2726 4 l 1
 2591 4 2442 -15 2223 -15 c 0
 2146 -15 2064 7 2064 47 c 2
 2064 55 l 1
EndSplineSet
EndChar

StartChar: plusminus
Encoding: 177 177 149
Width: 978
Flags: W
HStem: 135 111<128.374 866.902> 602 99<125.599 402.017 553.858 867.803>
VStem: 388 163<707.344 959.191> 403 173<340.13 550.423> 411 140<391.577 598.316 701.675 852.656>
LayerCount: 2
Fore
SplineSet
551 909 m 2xe0
 551 878 l 2xe0
 551 864 550 839 550 812 c 0
 550 760 554 701 576 701 c 0xd0
 609 701 671 709 731 709 c 0
 802 709 869 697 869 647 c 0
 869 615 835 591 793 591 c 0
 740 591 689 602 636 602 c 0
 592 602 551 593 551 553 c 0xc8
 551 498 576 444 576 389 c 0
 576 353 531 333 489 333 c 0
 451 333 403 352 403 385 c 0xd0
 403 451 411 518 411 584 c 2
 411 599 l 1xc8
 375 599 290 590 238 590 c 0
 177 590 125 602 125 655 c 0
 125 682 147 708 185 708 c 0
 237 708 290 701 342 701 c 0
 363 701 382 702 403 705 c 1xd0
 401 755 388 805 388 855 c 0
 388 900 397 968 473 968 c 0
 515 968 551 942 551 909 c 2xe0
125 200 m 0
 125 228 148 246 185 246 c 2
 740 246 l 2
 795 246 869 246 869 192 c 0
 869 158 832 145 793 145 c 0
 606 145 418 135 232 135 c 0
 173 135 125 149 125 200 c 0
EndSplineSet
EndChar

StartChar: Thorn
Encoding: 222 222 150
Width: 863
Flags: W
HStem: -11 21G<208.5 266.5>
VStem: 139 156<813.016 1249 1348.22 1535.57> 168 168<2.13096 495.298> 619 137<807.902 1106.42>
LayerCount: 2
Fore
SplineSet
139 1297 m 1xd0
 138 1487 l 2
 138 1522 151 1548 202 1548 c 0
 280 1548 293 1483 293 1424 c 0
 293 1396 290 1370 290 1353 c 1
 650 1327 756 1128 756 965 c 0
 756 773 649 595 302 502 c 1
 304 359 336 217 336 74 c 0
 336 29 301 -11 232 -11 c 0
 185 -11 168 29 168 58 c 0xb0
 168 471 139 884 139 1297 c 1xd0
618 948 m 1
 619 948 l 1
 619 1117 568 1147 295 1249 c 1xd0
 295 1033 291 817 291 601 c 1
 510 699 618 804 618 948 c 1
EndSplineSet
EndChar

StartChar: onequarter
Encoding: 188 188 151
Width: 2729
Flags: W
HStem: -37 30G<1069.5 1238 2574 2628.5> -6 95<231.537 398.587> -5 104<509 839.501> 481 95<2238.01 2375.49> 508 94<2514.03 2662.74> 1482 96<77.044 293.963>
VStem: 300 110<1021.44 1474.83> 382 127<99.1245 567.069> 2106 132<585.219 963.969> 2146 151<785.423 1332.83 1336.49 1533.59> 2146 134<1261.13 1490.56> 2337 137<690.214 1172> 2398 116<420.375 491.459> 2524 143<-28.0547 155.437>
LayerCount: 2
Fore
SplineSet
382 123 m 1xc504
 381 123 l 1
 381 522 300 926 300 1311 c 0
 300 1332 304 1359 304 1386 c 0
 304 1435 290 1482 212 1482 c 0
 195 1482 173 1480 150 1480 c 0
 111 1480 75 1486 75 1524 c 0
 75 1577 234 1578 290 1578 c 0
 332 1578 383 1577 407 1544 c 1
 405 1537 404 1530 404 1523 c 0
 404 1502 410 1480 410 1458 c 0xc604
 410 1332 451 1208 451 1082 c 0
 451 759 509 436 509 112 c 2
 509 99 l 1
 563 101 616 105 669 105 c 1
 669 106 l 1
 746 106 851 102 851 55 c 0
 851 -1 509 -5 417 -5 c 0xa504
 378 -5 368 -6 338 -6 c 0
 284 -6 230 0 230 50 c 2
 230 94 l 1
 247 93 299 89 323 89 c 0
 355 89 382 96 382 123 c 1xc504
994 33 m 0
 994 129 1573 1556 1809 1556 c 0
 1869 1556 1924 1536 1924 1506 c 0
 1924 1329 1384 -28 1092 -28 c 1
 1047 -15 994 8 994 33 c 0
2377 587 m 1
 2377 590 l 2
 2377 783 2337 986 2337 1162 c 0
 2337 1193 2385 1208 2419 1208 c 1
 2474 1172 l 1
 2474 1139 2474 1106 2474 1073 c 0
 2474 914 2476 754 2507 597 c 1
 2527 598 2555 602 2584 602 c 0
 2624 602 2663 594 2663 558 c 0
 2663 514 2623 508 2576 508 c 0x8c94
 2557 508 2514 506 2514 490 c 0
 2514 437 2640 191 2659 156 c 1
 2657 144 2654 131 2654 118 c 0
 2654 104 2657 90 2667 77 c 1
 2667 40 l 2
 2667 10 2653 -37 2604 -37 c 0
 2544 -37 2524 24 2524 60 c 2
 2524 67 l 1
 2533 91 2533 116 2533 141 c 0
 2533 208 2514 273 2514 340 c 0
 2514 370 2516 399 2398 429 c 1
 2398 450 2397 471 2393 492 c 1
 2345 490 2271 481 2211 481 c 1
 2211 480 l 1
 2171 480 2137 494 2106 513 c 1
 2106 540 2108 566 2117 592 c 1
 2108 629 2106 667 2106 707 c 0x948c
 2106 845 2146 992 2146 1125 c 2
 2146 1504 l 2x9444
 2146 1526 2149 1544 2197 1544 c 0
 2234 1544 2299 1525 2299 1493 c 0
 2299 1441 2280 1387 2280 1334 c 0x9424
 2280 1309 2284 1284 2297 1260 c 1
 2297 1253 l 1x9444
 2301 1239 2302 1224 2302 1209 c 0
 2302 1187 2299 1165 2299 1143 c 0
 2299 969 2238 796 2238 622 c 0
 2238 607 2241 591 2245 576 c 1x9484
 2298 577 2345 581 2377 587 c 1
EndSplineSet
EndChar

StartChar: divide
Encoding: 247 247 152
Width: 937
Flags: W
HStem: 369 141<369.891 534.246> 590 111<89.3745 827.902> 789 141<368.143 537.492>
VStem: 363 183<379.604 496.563 799.875 919.149>
LayerCount: 2
Fore
SplineSet
86 655 m 0
 86 683 109 701 146 701 c 2
 701 701 l 2
 756 701 830 701 830 647 c 0
 830 613 793 600 754 600 c 0
 567 600 379 590 193 590 c 0
 134 590 86 604 86 655 c 0
457 789 m 0
 406 789 359 823 359 862 c 0
 359 899 407 930 454 930 c 0
 509 930 546 893 546 853 c 0
 546 817 502 789 457 789 c 0
546 428 m 0
 546 389 506 369 459 369 c 0
 407 369 363 398 363 439 c 0
 363 477 402 510 453 510 c 0
 507 510 546 467 546 428 c 0
EndSplineSet
EndChar

StartChar: brokenbar
Encoding: 166 166 153
Width: 442
Flags: W
VStem: 148 148<1027.64 1575.47> 165 131<-76.5045 689.884 830.031 1487.2>
LayerCount: 2
Fore
SplineSet
217 695 m 0x40
 277 695 296 662 296 621 c 2
 296 -16 l 2
 296 -50 283 -80 233 -80 c 0
 196 -80 165 -57 165 -29 c 2
 165 644 l 2
 165 668 183 695 217 695 c 0x40
158 1020 m 0
 158 1183 148 1348 148 1510 c 0
 148 1556 178 1584 240 1584 c 0
 290 1584 296 1481 296 1393 c 2x80
 296 877 l 2
 296 849 261 826 225 826 c 0
 157 826 158 988 158 1020 c 0
EndSplineSet
EndChar

StartChar: degree
Encoding: 176 176 154
Width: 1255
Flags: W
HStem: 438 77<377.443 856.8> 901 69<384.077 872.87>
VStem: 139 98<606.406 792.066> 1042 89<633.967 807.353>
LayerCount: 2
Fore
SplineSet
585 901 m 2
 584 901 l 2
 310 901 237 773 237 665 c 0
 237 607 395 515 584 515 c 0
 969 515 1042 668 1042 729 c 0
 1042 792 952 901 585 901 c 2
139 731 m 1
 138 731 l 1
 138 867 269 970 566 970 c 0
 1057 970 1131 821 1131 733 c 0
 1131 649 1069 438 568 438 c 0
 194 438 139 617 139 731 c 1
EndSplineSet
EndChar

StartChar: thorn
Encoding: 254 254 155
Width: 857
Flags: W
HStem: -11 21G<208 264.5> 472 99<299 409.712>
VStem: 139 156<688.354 1129 1228.22 1533.42> 168 163<0.875488 465.766> 615 138<721.354 987.253>
LayerCount: 2
Fore
SplineSet
139 1178 m 2xe8
 139 1487 l 2xe8
 139 1522 152 1548 203 1548 c 0
 283 1548 300 1463 300 1380 c 0
 300 1318 291 1258 291 1233 c 1
 647 1207 753 1008 753 845 c 0
 753 670 625 540 299 472 c 1
 300 339 331 207 331 74 c 0
 331 29 298 -11 231 -11 c 0
 185 -11 168 28 168 58 c 0xd8
 168 432 139 805 139 1178 c 2xe8
615 828 m 0
 615 998 564 1027 295 1129 c 1
 295 943 292 757 292 571 c 1
 487 635 615 710 615 828 c 0
EndSplineSet
EndChar

StartChar: threequarters
Encoding: 190 190 156
Width: 2592
Flags: W
HStem: -37 21G<2436 2490.5> -17 84<262.4 511.221> 481 95<2097.01 2234.44> 508 94<2372.58 2521.74> 1480 96<252.127 398.345>
VStem: 465 133<1034.83 1398.8> 567 134<124.011 663.68> 1964 133<585.219 963.969> 2005 150<784.893 1332.83 1336.49 1534.22> 2005 133<1261.13 1490.56> 2196 136<690.214 1172> 2257 115<420.375 491.459> 2387 143<-28.0547 155.437>
LayerCount: 2
Fore
SplineSet
331 1576 m 0x4c08
 554 1576 598 1296 598 1127 c 0x4c08
 598 1043 534 996 478 930 c 1
 658 847 701 512 701 364 c 0
 701 216 684 -17 425 -17 c 0
 351 -17 229 8 229 79 c 2
 229 92 l 1
 273 92 l 1
 328 86 361 91 404 67 c 1
 554 72 567 210 567 297 c 0x4a08
 567 485 564 697 404 852 c 1
 399 851 394 851 387 851 c 0
 361 851 333 860 309 868 c 1
 309 892 l 2
 309 953 465 1019 465 1153 c 0
 465 1219 447 1480 326 1480 c 0
 227 1480 259 1363 151 1363 c 0
 109 1363 81 1390 74 1419 c 1
 118 1504 205 1576 331 1576 c 0x4c08
853 33 m 0
 853 129 1431 1556 1668 1556 c 0
 1728 1556 1785 1536 1785 1506 c 0
 1785 1330 1241 -28 950 -28 c 1
 906 -15 853 8 853 33 c 0
2236 587 m 1
 2236 590 l 2
 2236 783 2196 986 2196 1162 c 0
 2196 1193 2244 1208 2278 1208 c 1
 2332 1172 l 1
 2332 1139 2332 1106 2332 1073 c 0x6928
 2332 914 2335 754 2366 597 c 1
 2385 598 2414 602 2443 602 c 0
 2483 602 2522 594 2522 558 c 0
 2522 514 2482 508 2435 508 c 0
 2415 508 2372 506 2372 490 c 0
 2372 437 2502 191 2522 156 c 1
 2519 144 2517 131 2517 118 c 0
 2517 104 2519 90 2530 77 c 1
 2530 40 l 2
 2530 10 2515 -37 2466 -37 c 0x9818
 2406 -37 2387 24 2387 60 c 2
 2387 67 l 1
 2396 91 2396 116 2396 141 c 0
 2396 208 2375 273 2375 340 c 0
 2375 370 2376 399 2257 429 c 1
 2257 450 2255 471 2252 492 c 1
 2203 490 2129 481 2070 481 c 1
 2070 480 l 1
 2029 480 1995 494 1964 513 c 1
 1964 540 1967 566 1976 592 c 1
 1967 629 1964 667 1964 707 c 0x6918
 1964 845 2005 992 2005 1125 c 2
 2005 1504 l 2x6888
 2005 1526 2007 1544 2055 1544 c 0
 2093 1544 2158 1525 2158 1493 c 0
 2158 1441 2138 1387 2138 1334 c 0x6848
 2138 1309 2142 1284 2155 1260 c 1
 2155 1253 l 1x6888
 2159 1239 2161 1224 2161 1209 c 0
 2161 1187 2158 1165 2158 1143 c 0
 2158 969 2097 796 2097 622 c 0
 2097 607 2099 591 2103 576 c 1x6908
 2157 577 2203 581 2236 587 c 1
EndSplineSet
EndChar

StartChar: twosuperior
Encoding: 178 178 157
Width: 761
Flags: W
HStem: -15 21G<152.5 243.5> 4 103<251.938 610.115>
VStem: 525 128<987.142 1447.17>
LayerCount: 2
Fore
SplineSet
78 47 m 1xa0
 78 47 525 864 525 1236 c 0
 525 1305 520 1492 398 1500 c 1
 325 1470 359 1327 260 1327 c 0
 211 1327 195 1357 195 1390 c 0
 195 1465 247 1586 367 1586 c 1
 367 1587 l 1
 651 1587 653 1357 653 1201 c 0
 653 774 384 408 246 86 c 1
 346 99 446 107 547 107 c 1
 595 98 612 81 612 61 c 0
 612 43 599 23 581 4 c 1x60
 446 4 311 -15 176 -15 c 0
 129 -15 78 7 78 47 c 1xa0
EndSplineSet
EndChar

StartChar: registered
Encoding: 174 174 158
Width: 2088
Flags: W
HStem: -190 106<829 1230.81> 1524 110<785.832 1117.22> 1832 106<793.77 1276.46>
VStem: 130 156<629.377 1309.33> 642 155<319.065 913> 642 119<1003.03 1491.89> 668 178<209 421.624> 1193 254<1160.83 1448.66> 1832 148<404.279 1165.57>
LayerCount: 2
Fore
SplineSet
965 1524 m 0xf580
 784 1524 761 1474 761 1406 c 0
 761 1363 771 1311 771 1262 c 0
 771 1174 772 1085 802 999 c 1
 1057 1048 1193 1141 1193 1271 c 2
 1193 1280 l 2
 1193 1359 1190 1524 965 1524 c 0xf580
797 795 m 0xf980
 797 599 846 405 846 209 c 1
 668 209 l 1xf380
 668 281 642 353 642 425 c 2
 642 1453 l 2
 642 1602 716 1634 949 1634 c 0
 1386 1634 1447 1432 1447 1269 c 0
 1447 1022 1174 1006 1149 968 c 1
 1156 887 1461 424 1518 313 c 1
 1352 226 l 1
 1161 394 1021 796 924 913 c 1
 807 913 l 1
 803 881 797 827 797 795 c 0xf980
286 954 m 2
 286 953 l 2
 286 585 446 120 744 -64 c 1
 829 -64 l 1
 829 -84 l 1
 1746 -79 1832 396 1832 706 c 0
 1832 1023 1797 1354 1567 1655 c 1
 1567 1670 l 1
 1487 1727 1232 1832 1087 1832 c 0
 334 1832 286 1241 286 954 c 2
1053 1938 m 1
 1053 1938 l 1
 1917 1938 1980 1224 1980 807 c 0
 1980 470 1979 -190 1024 -190 c 0
 290 -190 257 366 131 765 c 1
 131 810 130 866 130 930 c 0
 130 1306 175 1938 1053 1938 c 1
EndSplineSet
EndChar

StartChar: minus
Encoding: 8722 8722 159
Width: 1027
Flags: W
HStem: 590 111<155.374 893.902>
LayerCount: 2
Fore
SplineSet
152 655 m 0
 152 683 175 701 212 701 c 2
 767 701 l 2
 822 701 896 701 896 647 c 0
 896 613 859 600 820 600 c 0
 633 600 445 590 259 590 c 0
 200 590 152 604 152 655 c 0
EndSplineSet
EndChar

StartChar: eth
Encoding: 240 240 160
Width: 880
Flags: W
HStem: -15 87<303.201 500.812> 1242 340<196 445>
VStem: 117 126<126.475 705.703> 597 122<196.792 827.484>
LayerCount: 2
Fore
SplineSet
400 1340 m 1
 357 1414 157 1496 157 1539 c 0
 157 1565 196 1582 226 1582 c 0
 461 1582 582 1441 623 1351 c 1
 671 1353 718 1355 766 1355 c 0
 783 1355 788 1333 788 1326 c 0
 788 1289 685 1272 651 1267 c 1
 708 1062 719 850 719 641 c 0
 719 522 707 402 707 283 c 0
 707 159 698 -15 404 -15 c 0
 130 -15 117 173 117 305 c 1
 117 305 113 345 113 406 c 0
 113 589 144 956 493 956 c 0
 511 956 530 955 550 954 c 1
 521 1053 490 1153 445 1251 c 1
 321 1245 216 1242 143 1242 c 0
 126 1242 121 1265 121 1272 c 0
 121 1319 330 1336 400 1340 c 1
393 72 m 2
 394 72 l 2
 572 72 597 319 597 507 c 0
 597 580 593 644 593 681 c 0
 593 761 577 853 463 885 c 1
 246 859 246 472 246 390 c 0
 246 378 243 354 243 325 c 0
 243 228 259 72 393 72 c 2
EndSplineSet
EndChar

StartChar: multiply
Encoding: 215 215 161
Width: 849
Flags: W
HStem: 399 481
VStem: 91 439<613 838.5>
LayerCount: 2
Fore
SplineSet
599 399 m 1
 569 421 429 557 410 562 c 1
 376 560 298 430 212 430 c 0
 173 430 131 460 131 490 c 0
 131 528 272 601 306 638 c 1
 246 681 91 755 91 823 c 0
 91 854 130 880 169 880 c 0
 203 880 373 748 415 721 c 1
 488 750 542 866 640 866 c 0
 676 866 710 839 710 811 c 0
 710 745 530 707 530 643 c 0
 530 583 737 539 737 473 c 0
 737 435 692 399 642 399 c 2
 599 399 l 1
EndSplineSet
EndChar

StartChar: threesuperior
Encoding: 179 179 162
Width: 787
Flags: W
HStem: -20 84<262.4 511.221> 1477 96<252.127 398.345>
VStem: 465 133<1031.83 1395.8> 567 134<121.011 660.68>
LayerCount: 2
Fore
SplineSet
331 1573 m 0xe0
 554 1573 598 1293 598 1124 c 0xe0
 598 1040 534 993 478 927 c 1
 658 844 701 509 701 361 c 0
 701 213 684 -20 425 -20 c 0
 351 -20 229 5 229 76 c 2
 229 89 l 1
 273 89 l 1
 328 83 361 88 404 64 c 1
 554 69 567 207 567 294 c 0xd0
 567 482 564 694 404 849 c 1
 399 848 394 848 387 848 c 0
 361 848 333 857 309 865 c 1
 309 889 l 2
 309 950 465 1016 465 1150 c 0
 465 1216 447 1477 326 1477 c 0
 227 1477 259 1360 151 1360 c 0
 109 1360 81 1387 74 1416 c 1
 118 1501 205 1573 331 1573 c 0xe0
EndSplineSet
EndChar

StartChar: copyright
Encoding: 169 169 163
Width: 2377
Flags: W
HStem: -20 101<672.837 1443.4> 225 107<937.555 1370.91> 1387 112<914.802 1265.34> 1713 99<718.955 1331.86>
VStem: 121 151<441.191 1216.77> 479 153<613.774 1043.44> 2124 149<536.864 1068.66>
LayerCount: 2
Fore
SplineSet
1148 332 m 2
 1149 332 l 2
 1387 332 1435 440 1610 440 c 0
 1707 440 1723 404 1723 372 c 0
 1723 283 1356 225 1175 225 c 0
 533 225 479 583 479 813 c 2
 479 825 l 2
 479 1028 482 1499 1066 1499 c 0
 1334 1499 1702 1380 1702 1275 c 0
 1702 1247 1647 1223 1571 1223 c 0
 1308 1223 1327 1387 1091 1387 c 0
 814 1387 632 1093 632 815 c 0
 632 567 823 332 1148 332 c 2
2124 894 m 1
 2126 894 l 1
 2126 1166 1736 1713 984 1713 c 0
 363 1713 274 1160 274 940 c 0
 274 884 272 823 272 760 c 0
 272 443 332 81 1013 81 c 0
 1634 81 1931 234 2124 464 c 1
 2124 894 l 1
1075 -20 m 2
 1074 -20 l 2
 151 -20 121 384 121 795 c 0
 121 838 121 881 121 924 c 0
 121 1208 186 1812 918 1812 c 0
 2130 1812 2273 1105 2273 757 c 1
 2227 403 2118 -20 1075 -20 c 2
EndSplineSet
EndChar

StartChar: foursuperior
Encoding: 8308 8308 222
Width: 742
Flags: W
HStem: -37 21G<475 529.5> 481 95<258.006 395.443> 508 94<533.579 682.733>
VStem: 125 133<585.219 963.969> 165 151<784.893 1332.83 1336.49 1534.22> 165 134<1261.13 1490.56> 356 137<690.214 1172> 418 115<157.794 491.459> 425 143<-28.0547 155.437>
LayerCount: 2
Fore
SplineSet
397 587 m 1xd0
 397 590 l 2
 397 783 356 986 356 1162 c 0
 356 1193 405 1208 438 1208 c 1
 493 1172 l 1
 493 1139 493 1106 493 1073 c 0xd2
 493 914 496 754 527 597 c 1
 546 598 575 602 603 602 c 0
 644 602 683 594 683 558 c 0
 683 514 642 508 596 508 c 0
 576 508 533 506 533 490 c 0xa1
 533 437 541 191 561 156 c 1
 558 144 555 131 555 118 c 0
 555 104 558 90 568 77 c 1
 568 40 l 2
 568 10 554 -37 505 -37 c 0
 445 -37 425 24 425 60 c 2
 425 67 l 1xa080
 434 91 434 116 434 141 c 0
 434 208 415 273 415 340 c 0
 415 370 418 399 418 429 c 0
 418 450 416 471 412 492 c 1
 364 490 290 481 230 481 c 1
 230 480 l 1
 190 480 156 494 125 513 c 1
 125 540 128 566 137 592 c 1
 128 629 125 667 125 707 c 0xd1
 125 845 165 992 165 1125 c 2
 165 1504 l 2xc8
 165 1526 168 1544 216 1544 c 0
 254 1544 319 1525 319 1493 c 0
 319 1441 299 1387 299 1334 c 0xc4
 299 1309 303 1284 316 1260 c 1
 316 1253 l 1xc8
 320 1239 321 1224 321 1209 c 0
 321 1187 319 1165 319 1143 c 0
 319 969 258 796 258 622 c 0
 258 607 260 591 264 576 c 1
 317 577 364 581 397 587 c 1xd0
EndSplineSet
EndChar

StartChar: uni00AD
Encoding: 173 173 223
Width: 855
Flags: W
HStem: 656 142<197.294 669.685>
VStem: 146 575<702.416 750.333>
LayerCount: 2
Fore
SplineSet
721 739 m 0
 721 666 309 656 233 656 c 0
 190 656 146 680 146 715 c 0
 146 787 558 798 632 798 c 0
 675 798 721 775 721 739 c 0
EndSplineSet
EndChar

StartChar: uni0110
Encoding: 272 272 240
Width: 1394
Flags: W
HStem: 1125 119<68.5156 267.685> 1137 107<135.157 269 420 862.188> 1153 121<426.787 953>
VStem: 212 152<1670.59 2097> 339 152<204 590.848> 1115 2<983 1831>
LayerCount: 2
Fore
SplineSet
420 1141 m 1x34
 420 1140 l 1
 430 827 485 517 491 204 c 1x2c
 1034 419 1115 677 1115 983 c 0
 1115 1314 1096 1955 364 2097 c 1
 364 1829 l 2
 364 1635 369 1440 419 1252 c 1
 540 1256 709 1274 880 1274 c 0
 972 1274 1023 1230 1027 1194 c 1
 953 1153 l 1
 759 1153 564 1152 420 1141 c 1x34
447 45 m 1
 446 47 l 1
 402 57 361 74 339 107 c 1
 339 450 339 797 272 1137 c 1x4c
 226 1132 179 1125 133 1125 c 0
 90 1125 65 1154 65 1184 c 0
 65 1236 164 1244 218 1244 c 2x8c
 269 1244 l 1
 267 1548 212 1850 212 2154 c 0x54
 212 2182 244 2220 285 2220 c 0
 459 2220 1117 1966 1117 1831 c 0
 1117 1486 1269 1154 1269 809 c 0
 1269 507 1018 186 447 45 c 1
EndSplineSet
EndChar

StartChar: uni0111
Encoding: 273 273 241
Width: 886
Flags: W
HStem: -13 104<320 421.205>
VStem: 144 176<96.25 648.438> 152 138<577.891 1253.72>
LayerCount: 2
Fore
SplineSet
320 140 m 2xc0
 320 91 l 1xc0
 375 91 l 1
 589 269 619 373 619 611 c 0
 619 783 611 1230 310 1257 c 1
 293 1187 290 1115 290 1044 c 0xa0
 290 742 320 442 320 140 c 2xc0
215 1353 m 1
 215 1352 l 1
 380 1352 531 1218 642 1160 c 1
 642 1147 l 1
 740 1010 759 966 759 807 c 0
 759 777 754 740 754 704 c 0
 754 674 758 644 771 621 c 1
 703 354 778 135 404 -13 c 1
 212 -13 l 2
 147 -13 144 189 144 255 c 0xc0
 144 470 152 685 152 900 c 0xa0
 152 1027 121 1184 121 1286 c 0
 121 1322 170 1353 215 1353 c 1
EndSplineSet
EndChar

StartChar: gcedilla
Encoding: 291 291 259
Width: 1151
Flags: W
HStem: -16 107<468.603 796.895> 518 106<554.33 883.044> 1252 102<469.15 823.754>
VStem: 105 156<330.025 952.214> 885 159<413.388 517.692> 885 143<190.244 517.692>
LayerCount: 2
Fore
SplineSet
261 629 m 1xf4
 265 629 l 1
 265 436 278 91 676 91 c 0
 873 91 885 314 885 416 c 2
 885 511 l 1
 854 519 819 519 784 519 c 0
 759 519 730 518 699 518 c 0
 625 518 551 524 551 565 c 0
 551 606 625 624 702 624 c 1
 702 623 l 1
 836 623 1044 619 1044 560 c 0xf8
 1044 509 1015 462 1015 411 c 0
 1015 341 1028 266 1028 194 c 0
 1028 52 864 -16 622 -16 c 0
 108 -16 105 352 105 612 c 2
 105 684 l 2
 105 958 118 1354 643 1354 c 0
 717 1354 825 1349 825 1302 c 0
 825 1268 755 1247 689 1247 c 0
 658 1247 626 1252 598 1252 c 0
 283 1252 261 732 261 629 c 1xf4
EndSplineSet
EndChar

StartChar: Hbar
Encoding: 294 294 262
Width: 1005
Flags: W
HStem: -30 21G<762.5 812> 770 55<308.389 633.659> 894 103<278 685>
VStem: 117 131<999.719 1522.56> 124 180<446.122 760.913> 124 149<810.843 899 994 1354.28 1362.4 1525> 667 143<1018.48 1482.33> 686 180<995 1229.41> 720 146<-22.2399 527.396>
LayerCount: 2
Fore
SplineSet
686 897 m 1xe5
 685 896 l 1
 649 895 589 894 528 894 c 0
 445 894 355 895 276 899 c 1
 274 887 273 875 273 863 c 0
 273 845 276 828 282 810 c 1
 423 812 560 823 686 825 c 1
 686 849 686 873 686 897 c 1xe5
810 1393 m 1xf2
 807 1394 l 1
 807 1250 859 1040 859 944 c 0
 859 922 844 910 823 904 c 1
 846 617 866 330 866 44 c 0
 866 11 836 -30 788 -30 c 0
 737 -30 720 5 720 38 c 0
 720 93 729 222 729 357 c 0
 729 557 701 770 562 770 c 0
 476 770 384 770 304 754 c 1xe880
 303 522 373 292 373 60 c 0
 373 35 338 6 278 6 c 0
 187 6 124 526 124 951 c 0xe4
 124 954 124 957 125 960 c 1
 117 1215 117 1440 117 1510 c 2
 117 1525 l 1
 263 1525 l 1
 252 1473 248 1411 248 1360 c 0
 248 1238 272 1116 278 994 c 1
 338 995 437 997 543 997 c 0
 594 997 647 996 685 995 c 1
 679 1162 667 1329 667 1496 c 2
 667 1550 l 1
 794 1550 810 1469 810 1393 c 1xf2
EndSplineSet
EndChar

StartChar: hbar
Encoding: 295 295 263
Width: 901
Flags: W
HStem: 0 21G<733.5 800.5> 632 172<301.585 672.858> 651 149<297 571.553> 1357 20G<755.5 772.5>
VStem: 134 168<839.219 1340.43> 138 146<84.2507 651 800 1226.25> 632 170<903.223 1364.37> 664 188<46.372 561.34>
LayerCount: 2
Fore
SplineSet
783 0 m 2xd1
 780 0 l 2
 687 0 664 148 664 294 c 0
 664 396 676 498 676 548 c 2
 676 556 l 2
 676 576 675 595 675 615 c 0
 675 621 674 628 674 634 c 2
 674 636 l 1
 650 633 602 632 576 632 c 0xd1
 481 632 395 649 297 651 c 1
 294 576 284 500 284 425 c 2
 284 416 l 2
 284 304 321 191 321 79 c 0
 321 44 284 5 232 5 c 0
 154 5 138 134 138 283 c 0xb5
 138 391 146 509 146 595 c 0
 146 647 147 680 147 712 c 0
 147 752 152 792 152 832 c 0
 152 986 134 1140 134 1294 c 0
 134 1325 168 1355 209 1355 c 0
 286 1355 302 1276 302 1233 c 0
 302 1089 289 944 285 800 c 1
 288 800 291 800 293 800 c 0xb8
 319 800 395 804 480 804 c 0
 553 804 631 801 684 790 c 1
 678 967 632 1143 632 1320 c 0
 632 1351 685 1374 724 1374 c 0
 735 1374 749 1377 762 1377 c 0
 783 1377 802 1369 802 1326 c 0xda
 802 896 852 468 852 38 c 0
 852 12 818 0 783 0 c 2xd1
EndSplineSet
EndChar

StartChar: IJ
Encoding: 306 306 273
Width: 1273
Flags: W
HStem: 20 94<86.2534 261.996 401 566.61> 1444 110<334.906 491.289 697.828 819.502 982 1097.51>
VStem: 212 121<952.633 1428.6> 262 139<116.015 632.5> 882 143<81.0023 788.174>
LayerCount: 2
Fore
SplineSet
498 20 m 2xd8
 163 20 l 2
 143 20 86 24 86 65 c 0
 86 102 125 114 167 114 c 0
 199 114 225 113 249 113 c 0
 256 113 262 121 262 159 c 0xd8
 262 475 212 790 212 1106 c 0
 212 1176 217 1245 217 1315 c 0
 217 1353 216 1391 211 1429 c 1
 191 1424 168 1420 148 1420 c 0
 113 1420 86 1431 86 1469 c 0
 86 1541 347 1554 415 1554 c 0
 455 1554 493 1530 493 1498 c 0
 493 1471 470 1443 431 1443 c 0
 412 1443 397 1444 384 1444 c 0
 353 1444 333 1438 333 1402 c 0xe8
 333 1002 401 604 401 204 c 2
 401 116 l 1
 420 116 436 117 455 117 c 0
 512 117 563 110 563 83 c 1
 566 76 567 69 567 63 c 0
 567 30 533 20 498 20 c 2xd8
670 -131 m 2
 670 -130 l 2
 670 -20 880 -5 880 241 c 0
 880 334 882 429 882 525 c 0
 882 836 874 1155 811 1445 c 1
 774 1439 735 1429 696 1429 c 0
 659 1429 628 1453 628 1481 c 0
 628 1553 883 1553 947 1553 c 0
 1001 1553 1100 1548 1100 1497 c 0
 1100 1453 1035 1444 990 1444 c 0
 987 1444 984 1444 982 1444 c 1
 982 1429 l 2
 982 1323 977 1218 977 1112 c 0
 977 846 1025 581 1025 315 c 0
 1025 64 965 -86 766 -194 c 1
 714 -194 670 -175 670 -131 c 2
EndSplineSet
EndChar

StartChar: ij
Encoding: 307 307 274
Width: 1497
Flags: W
HStem: 18 100<154.905 284.997 423 641.842> 1205 154<1112.15 1206.62> 1254 102<73.9219 272.874 416 553.334 760.097 967>
VStem: 267 145<173.641 1065.91 1074.68 1248> 281 146<130.753 573.203 587.125 1246.31> 967 143<759.008 1225> 991 145<-13.1033 660.992>
LayerCount: 2
Fore
SplineSet
368 22 m 0xb0
 324 22 289 18 252 18 c 0
 212 18 173 26 154 55 c 1
 154 88 159 118 204 118 c 2
 280 118 l 1
 281 127 285 136 285 145 c 0
 285 290 267 435 267 580 c 0xb0
 267 732 281 884 281 1036 c 0
 281 1109 277 1182 268 1254 c 1
 217 1254 l 1
 198 1255 177 1254 156 1254 c 0
 112 1254 73 1262 73 1309 c 0
 73 1353 154 1356 204 1356 c 0
 212 1356 220 1356 226 1356 c 0
 299 1356 568 1355 568 1286 c 0
 568 1276 558 1257 553 1248 c 1
 416 1248 l 1
 424 1192 427 1129 427 1072 c 0xa8
 427 942 412 811 412 681 c 0
 412 536 432 391 432 246 c 2
 432 185 l 2
 432 166 427 146 423 130 c 1
 536 130 l 2
 589 130 645 122 645 79 c 0
 645 48 615 24 584 24 c 0
 545 24 507 23 468 23 c 0
 447 23 416 22 368 22 c 0xb0
785 -254 m 1
 706 -193 l 1
 935 -82 991 -9 991 187 c 0xc2
 991 536 967 884 967 1233 c 2
 967 1242 l 1
 913 1247 757 1252 757 1312 c 0
 757 1342 813 1359 844 1359 c 0
 922 1359 1318 1327 1318 1253 c 0
 1318 1222 1282 1205 1246 1205 c 0
 1200 1205 1156 1219 1110 1225 c 1
 1110 1208 l 2xc4
 1110 933 1136 657 1136 382 c 0
 1136 352 1133 321 1133 290 c 0
 1133 230 1136 171 1136 114 c 0xc2
 1136 -64 1097 -217 785 -254 c 1
EndSplineSet
EndChar

StartChar: kgreenlandic
Encoding: 312 312 279
Width: 913
Flags: W
HStem: -35 21G<199 243.5 668 777.5>
VStem: 137 143<-23.9863 650.494> 188 161<843.141 1349.24>
LayerCount: 2
Fore
SplineSet
509 919 m 1xa0
 509 878 504 839 504 798 c 0
 504 593 834 164 834 19 c 0
 834 -13 797 -35 758 -35 c 0
 578 -35 404 626 376 752 c 1
 303 641 280 519 280 396 c 2
 280 17 l 2
 280 -14 262 -31 225 -31 c 0
 173 -31 137 -7 137 34 c 2
 137 656 l 2xc0
 137 877 188 1097 188 1318 c 1
 202 1342 233 1357 267 1357 c 0
 311 1357 349 1328 349 1294 c 2
 349 1288 l 1
 315 1243 314 1038 314 915 c 2
 314 842 l 1
 365 912 623 1344 692 1344 c 0
 735 1344 795 1329 795 1289 c 0
 795 1284 545 976 509 919 c 1xa0
EndSplineSet
EndChar

StartChar: Eng
Encoding: 330 330 294
Width: 1108
Flags: W
HStem: 1 21G<173 266 993.5 1028> 1443 109<545.828 668.278 830 946.777> 1576 20G<1078.5 1129>
VStem: 131 135<340.625 1296.3> 149 233<1302.18 1536.29> 149 117<991.438 1297> 173 93<1 607.742> 727 103<785.67 1221.34> 1012 160<1006.63 1588.7> 1012 133<225 1503.11>
LayerCount: 2
Fore
SplineSet
518 -132 m 2xe140
 518 -131 l 2
 518 -21 729 -6 729 240 c 0
 729 246 729 252 729 258 c 1
 581 564 494 1022 349 1111 c 1
 349 1113 349 1115 349 1117 c 0
 349 1185 290 1236 266 1297 c 1xe540
 266 1 l 1
 173 1 l 1
 173 39 l 1xe3
 174 45 175 52 175 60 c 0
 175 88 165 129 165 177 c 0
 165 371 131 688 131 812 c 2
 131 1073 l 2xf1
 131 1198 149 1324 149 1449 c 2
 149 1462 l 2
 149 1519 153 1554 249 1554 c 0
 307 1554 382 1528 382 1492 c 0
 382 1252 566 1014 727 778 c 1
 722 1006 706 1233 660 1444 c 1
 622 1438 583 1428 544 1428 c 0
 508 1428 477 1452 477 1480 c 0
 477 1552 732 1552 795 1552 c 0
 850 1552 949 1547 949 1496 c 0
 949 1452 884 1443 838 1443 c 0
 836 1443 833 1443 830 1443 c 1
 830 1428 l 2
 830 1322 825 1217 825 1111 c 0
 825 928 848 746 862 563 c 1
 910 475 945 386 957 298 c 1
 983 276 994 250 998 225 c 1
 998 463 1012 701 1012 939 c 2xe940
 1012 1545 l 1
 1023 1580 1057 1596 1100 1596 c 0
 1158 1596 1172 1553 1172 1516 c 2
 1172 1504 l 1xe180
 1161 1485 1155 1465 1155 1444 c 0
 1155 1193 1145 939 1145 687 c 2
 1145 61 l 2
 1145 17 1107 -21 1028 -21 c 1
 1029 -22 l 1
 958 -22 898 14 845 74 c 1
 811 -42 740 -127 615 -195 c 1
 563 -195 518 -176 518 -132 c 2xe140
EndSplineSet
EndChar

StartChar: eng
Encoding: 331 331 295
Width: 1456
Flags: W
HStem: -6 21G<1081.5 1229>
VStem: 138 146<137.969 1139.47> 143 141<13.9554 598.656 834.954 1145> 1172 150<740.237 1333.1>
LayerCount: 2
Fore
SplineSet
1322 1109 m 1xd0
 1321 917 1338 -6 1120 -6 c 0
 1043 -6 1055 55 1030 93 c 1
 1030 95 1031 98 1031 102 c 0
 1031 219 405 1016 284 1145 c 1
 284 66 l 2
 284 32 275 2 230 2 c 0
 154 2 143 84 143 127 c 0xb0
 143 361 138 595 138 829 c 0
 138 956 154 1084 154 1211 c 0
 154 1274 165 1322 236 1362 c 1
 236 1349 l 1
 242 1352 264 1354 271 1354 c 0
 549 1354 1036 345 1118 189 c 1
 1161 534 1172 881 1172 1228 c 0
 1172 1244 1168 1264 1168 1283 c 0
 1168 1315 1178 1344 1234 1344 c 0
 1289 1344 1322 1302 1322 1264 c 2
 1322 1109 l 1xd0
EndSplineSet
EndChar

StartChar: Tbar
Encoding: 358 358 318
Width: 794
Flags: W
HStem: -14 21G<388.5 456.5> 895 102<96.9152 321 454 666.314> 1438 112<440.422 640.281>
VStem: 324 134<456.438 895 997 1421.31> 336 162<-3.67188 410.891> 357 119<94.1094 872.506>
LayerCount: 2
Fore
SplineSet
669 943 m 0xf0
 669 906 622 898 583 898 c 0
 563 898 514 896 453 895 c 1
 455 799 464 704 494 611 c 1
 494 610 l 1
 480 559 476 506 476 454 c 0xe4
 476 331 498 209 498 86 c 0
 498 46 491 -14 422 -14 c 0
 355 -14 336 48 336 89 c 0xe8
 336 198 357 307 357 416 c 0xe4
 357 576 336 735 326 895 c 1
 208 898 94 910 94 950 c 0
 94 991 173 994 211 994 c 0
 229 994 270 996 321 997 c 1
 320 1016 320 1035 320 1054 c 0
 320 1093 324 1163 324 1233 c 0
 324 1311 319 1389 299 1424 c 1
 251 1422 203 1413 155 1413 c 0
 114 1413 68 1433 68 1469 c 0
 68 1539 483 1550 557 1550 c 0
 598 1550 643 1526 643 1492 c 0
 643 1457 604 1438 562 1438 c 0
 530 1438 498 1442 467 1442 c 0
 458 1442 449 1442 440 1441 c 1
 453 1357 458 1273 458 1189 c 0
 458 1126 455 1061 454 997 c 1
 564 994 669 982 669 943 c 0xf0
EndSplineSet
EndChar

StartChar: tbar
Encoding: 359 359 319
Width: 760
Flags: W
HStem: 701 100<90.4688 339 478 660.337> 1237 104<445.921 653.115> 1255 105<88.7934 308.685>
VStem: 309 130<813.742 1250.72> 387 141<12.8015 542.734>
LayerCount: 2
Fore
SplineSet
662 749 m 0xd0
 662 712 615 704 576 704 c 0
 560 704 524 702 478 701 c 1
 502 490 528 279 528 67 c 0
 528 34 490 6 447 6 c 2
 387 6 l 1
 387 58 382 138 382 190 c 0
 382 213 386 237 387 260 c 1xc8
 379 279 363 482 346 701 c 1
 218 703 87 714 87 757 c 0
 87 798 166 801 204 801 c 0
 225 801 277 803 339 804 c 1
 324 1012 311 1210 309 1255 c 1
 255 1256 83 1255 83 1316 c 0
 83 1344 138 1360 168 1360 c 0xb0
 288 1360 408 1341 529 1341 c 0
 542 1341 556 1342 572 1342 c 0
 613 1342 655 1336 655 1293 c 0
 655 1257 608 1237 567 1237 c 0
 525 1237 485 1247 444 1251 c 1
 443 1245 439 1237 439 1230 c 0
 439 1087 451 945 467 803 c 1
 569 799 662 786 662 749 c 0xd0
EndSplineSet
EndChar

StartChar: dotlessj
Encoding: 567 567 378
Width: 757
Flags: W
HStem: -254 208<184.501 308.005> 1205 154<477.155 571.623>
VStem: 332 143<759.008 1225> 355 146<40.8906 660.992>
LayerCount: 2
Fore
SplineSet
501 158 m 1xd0
 402 33 517 -254 181 -254 c 1
 59 -187 l 1
 59 -146 233 -64 279 -46 c 1
 339 8 355 117 355 187 c 0xd0
 355 536 332 884 332 1233 c 2
 332 1242 l 1
 277 1247 121 1252 121 1312 c 0
 121 1342 177 1359 209 1359 c 0
 287 1359 683 1327 683 1253 c 0
 683 1222 647 1205 610 1205 c 0
 565 1205 521 1219 475 1225 c 1
 475 1208 l 2xe0
 475 933 501 657 501 382 c 2
 501 158 l 1xd0
EndSplineSet
EndChar

StartChar: dotaccentcmb
Encoding: 775 775 379
Width: 478
Flags: W
HStem: 1390 152<154.354 327.334>
VStem: 143 195<1402.32 1526.69>
LayerCount: 2
Fore
SplineSet
143 1463 m 0
 143 1504 190 1542 243 1542 c 0
 294 1542 338 1503 338 1465 c 0
 338 1418 291 1390 233 1390 c 0
 183 1390 143 1426 143 1463 c 0
EndSplineSet
EndChar

StartChar: uni030F
Encoding: 783 783 380
Width: 1904
Flags: W
HStem: 1 550
LayerCount: 2
Fore
SplineSet
1749 -6 m 1
 1749 -5 l 1
 1749 -6 l 1
1193 1 m 1
 682.61 453.792 l 5
 757 533 l 5
 1244 38 l 1
 1193 1 l 1
1750 -5 m 1
 1233 505 l 5
 1337 551 l 5
 1773 16 l 1
 1750 -5 l 1
EndSplineSet
EndChar

StartChar: uni0311
Encoding: 785 785 381
Width: 710
Flags: W
HStem: 1047 95<286.172 423.194>
VStem: 442 146<880.047 960.662>
LayerCount: 2
Fore
SplineSet
583 978 m 1
 579 973 579 966 576 961 c 1
 579 954 588 934 588 928 c 0
 588 899 554 876 518 876 c 0
 451 876 442 910 442 953 c 0
 442 975 416 1047 381 1047 c 2
 325 1047 l 1
 252 1008 276 867 183 867 c 1
 134 899 l 1
 134 1010 185 1142 359 1142 c 0
 501 1142 534 1064 583 978 c 1
EndSplineSet
EndChar

StartChar: uni0326
Encoding: 806 806 382
Width: 692
Flags: W
HStem: -560 386<336.281 370.921>
VStem: 258 253<-340.622 -199.449>
LayerCount: 2
Fore
SplineSet
186 -560 m 1
 186 -488 l 1
 230 -454 321 -412 334 -362 c 1
 291 -338 258 -303 258 -261 c 0
 258 -209 326 -174 389 -174 c 0
 459 -174 489 -215 511 -260 c 1
 511 -267 l 2
 511 -271 507 -276 507 -281 c 0
 507 -373 389 -560 265 -560 c 2
 186 -560 l 1
EndSplineSet
EndChar

StartChar: Euro
Encoding: 8364 8364 383
Width: 967
Flags: W
HStem: -33 126<488.407 793.385> 654 70<94.159 209 352 605.695> 808 69<85.1631 202 337 597.416> 1448 117<438.029 764.337>
VStem: 199 153<883.346 1223.09 1227.03 1362.35> 209 128<725 808 879 1223.09 1227.03 1335.78> 214 138<289.853 653>
LayerCount: 2
Fore
SplineSet
600 852 m 2xf4
 600 851 l 2
 600 815 511 810 433 810 c 0
 401 810 371 811 349 811 c 0
 345 811 341 811 337 811 c 1
 337 725 l 1xf4
 419 726 509 726 591 731 c 1
 601 724 609 711 609 700 c 0
 609 657 483 652 404 652 c 0
 381 652 362 653 352 653 c 1
 374 441 342 93 641 93 c 0
 706 93 770 113 813 152 c 1
 842 152 870 155 898 162 c 1
 898 135 l 2
 898 4 744 -33 606 -33 c 0
 203 -33 229 450 214 654 c 1xf2
 111 654 l 1
 101 661 94 677 94 687 c 0
 94 721 149 724 188 724 c 0
 196 724 202 724 209 724 c 1
 209 808 l 1xf4
 110 808 l 1
 92 813 85 833 85 845 c 0
 85 876 110 877 144 877 c 2
 202 877 l 1
 202 930 199 984 199 1038 c 0
 199 1101 203 1164 218 1226 c 1
 212 1248 210 1269 210 1289 c 0
 210 1462 402 1565 634 1565 c 0
 706 1565 820 1531 820 1465 c 0
 820 1434 782 1419 745 1419 c 0
 697 1419 648 1448 614 1448 c 0
 358 1448 352 1294 352 1140 c 0xf8
 352 1047 350 972 337 879 c 1
 349 879 383 880 422 880 c 0
 498 880 600 876 600 852 c 2xf4
EndSplineSet
EndChar

StartChar: foundryicon
Encoding: 65537 -1 384
Width: 1506
Flags: HW
LayerCount: 2
Fore
SplineSet
1391 813 m 1
 1001.36 523.752 l 1
 1184 106 l 1
 1113 72 l 1
 702 375 l 1
 228 115 l 1
 180 141 l 1
 476.897 531.441 l 1
 122 820 l 1
 173 850 l 1
 383 848 l 1
 655 848 l 1
 831 1235 l 1
 854 1188 l 1
 941.676 853.992 l 1
 1320.95 850.577 l 1
 1391 813 l 1
EndSplineSet
EndChar

StartChar: commaaccent
Encoding: 65538 -1 385
Width: 681
Flags: W
HStem: -501 386<329.281 363.921>
VStem: 251 253<-281.622 -140.449>
LayerCount: 2
Fore
SplineSet
179 -501 m 1
 179 -429 l 1
 223 -395 314 -353 327 -303 c 1
 284 -279 251 -244 251 -202 c 0
 251 -150 319 -115 382 -115 c 0
 452 -115 482 -156 504 -201 c 1
 504 -208 l 2
 504 -212 500 -217 500 -222 c 0
 500 -314 382 -501 258 -501 c 2
 179 -501 l 1
EndSplineSet
EndChar

